<?xml version="1.0" encoding="utf-8"?>
<!-- Generator: Adobe Illustrator 24.1.0, SVG Export Plug-In . SVG Version: 6.00 Build 0)  -->
<svg version="1.1" id="Capa_1" xmlns="http://www.w3.org/2000/svg" xmlns:xlink="http://www.w3.org/1999/xlink" x="0px" y="0px"
	 viewBox="0 0 33 33" style="enable-background:new 0 0 33 33;" xml:space="preserve" width="33" height="33">
	<style type="text/css">
		.st0{fill-rule:evenodd;clip-rule:evenodd;fill:#576271;}
	</style>
	<path class="st0" d="M0,6.4c0.1-0.3,0.1-0.6,0.2-0.9C0.9,2.4,3.7,0.1,6.9,0c0.9,0,1.9,0,2.8,0c1.6,0,2.8,1.2,2.8,2.8c0,1.5-1.2,2.8-2.7,2.9
		c-0.8,0-1.7,0-2.5,0c-1.1,0-1.7,0.6-1.7,1.7c0,6.1,0,12.2,0,18.3c0,1.1,0.6,1.7,1.7,1.7c0.9,0,1.7,0,2.6,0c2,0.1,3.2,2.4,2.3,4.1
		c-0.5,0.9-1.2,1.5-2.2,1.5c-1.2,0-2.5,0.1-3.7,0c-3.1-0.3-5.7-2.9-6.2-6c0-0.1,0-0.2-0.1-0.3C0,19.9,0,13.1,0,6.4z"/>
	<path class="st0" d="M23.3,14.2c-0.1-0.1-0.2-0.2-0.3-0.3c-1.2-1.2-2.4-2.4-3.6-3.6c-1-1-1.1-2.5-0.3-3.6c0.8-1.1,2.3-1.6,3.5-1
		c0.3,0.2,0.6,0.4,0.8,0.6c2.9,2.9,5.8,5.7,8.6,8.6c1.2,1.2,1.2,2.9,0,4.1c-2.8,2.8-5.6,5.6-8.4,8.4c-1.2,1.2-2.9,1.2-4.1,0
		c-1.1-1.1-1.1-2.9,0.1-4c1.1-1.1,2.2-2.2,3.3-3.3c0.1-0.1,0.2-0.1,0.3-0.2l-0.1-0.1h-0.4c-3.9,0-7.7,0-11.6,0
		c-1.4,0-2.5-0.9-2.8-2.1c-0.4-1.8,0.9-3.5,2.8-3.5c2.5,0,5,0,7.5,0L23.3,14.2L23.3,14.2z"/>
</svg>
