<svg xmlns="http://www.w3.org/2000/svg" width="285.328" height="54.215" viewBox="0 0 285.328 54.215"><path d="M178.489,57.144a.743.743,0,0,1-.743-.743V38.049c0-2.554,1.1-3.65,3.65-3.65h6.245c1.9,0,3.159-.323,3.159-5.268,0-3.49-.891-4.908-3.159-4.908h-1.114v6.163a.7.7,0,0,1-.691.743.743.743,0,0,1-.743-.743V23.5a.743.743,0,0,1,.743-.743h1.786c4.619,0,4.619,4.786,4.619,6.367,0,4.945-1.255,6.727-4.619,6.727h-6.215c-1.741,0-2.19.446-2.19,2.191V55.674h5.922V41.989a.743.743,0,0,1,.743-.743h2.19c1.823,0,4.827,0,7.054-1.7,2.15-1.745,3.527-5.513,3.527-9.813a14.975,14.975,0,0,0-2.15-8.309c-2.15-3.364-5.391-3.364-8.836-3.364h-8.45V31.315a.743.743,0,1,1-1.459,0V17.333a.743.743,0,0,1,.743-.743h9.163c3.486,0,7.5,0,10.054,4.013a16.519,16.519,0,0,1,2.4,9.133c0,4.786-1.541,8.881-4.054,10.945-2.636,2.027-6.122,2.068-7.986,2.068H186.59V56.412a.7.7,0,0,1-.691.743Z" transform="translate(-99.896 -10.421)" fill="#d4af37"/><path d="M184.942,56.776h-7.377a1.292,1.292,0,0,1-1.288-1.288V37.125c0-2.87,1.337-4.206,4.206-4.206h6.245c1.511,0,2.6,0,2.6-4.711,0-3.624-.995-4.351-2.6-4.351H186.2v5.606a1.259,1.259,0,0,1-1.247,1.288,1.288,1.288,0,0,1-1.285-1.288V22.571a1.288,1.288,0,0,1,1.285-1.288h1.786c3.434,0,5.175,2.328,5.175,6.924-.007,4.374-.887,7.288-5.183,7.288h-6.245c-1.433,0-1.634.2-1.634,1.634V54.207h4.808V41.064a1.288,1.288,0,0,1,1.285-1.288h2.19c1.734,0,4.637,0,6.716-1.589,2-1.626,3.308-5.305,3.308-9.367a14.32,14.32,0,0,0-2.057-8c-1.99-3.115-4.949-3.115-8.372-3.115H178.85V30.4a1.288,1.288,0,1,1-2.573,0V16.408a1.292,1.292,0,0,1,1.288-1.288h9.163c3.475,0,7.8,0,10.522,4.273a16.8,16.8,0,0,1,2.48,9.419c0,4.93-1.593,9.185-4.258,11.376-2.851,2.194-6.557,2.194-8.339,2.194H186.2V55.488a1.259,1.259,0,0,1-1.255,1.288Zm-4.455-22.744c-2.254,0-3.093.839-3.093,3.093V55.488a.171.171,0,0,0,.174.174h7.377c.122,0,.134-.134.134-.174V41.269h2.057c1.66,0,5.109,0,7.644-1.949,2.395-1.968,3.835-5.9,3.835-10.507a15.75,15.75,0,0,0-2.3-8.814c-2.395-3.765-6.215-3.765-9.586-3.765h-9.163a.171.171,0,0,0-.174.174V30.394a.174.174,0,1,0,.345,0V16.583h8.992c3.438,0,6.995,0,9.3,3.62a15.387,15.387,0,0,1,2.228,8.61c0,4.455-1.429,8.376-3.735,10.243-2.391,1.827-5.528,1.827-7.4,1.827h-2.19a.167.167,0,0,0-.171.174v14.26h-7.024V37.125c0-2.053.694-2.747,2.747-2.747h6.245c2.636,0,4.062-.984,4.062-6.171,0-2.495-.42-5.81-4.062-5.81h-1.786a.167.167,0,0,0-.171.174v6.891a.167.167,0,0,0,.171.174c.123,0,.134-.134.134-.174v-6.72h1.652c3.275,0,3.713,2.762,3.713,5.465,0,4.923-1.251,5.825-3.713,5.825Z" transform="translate(-98.972 -9.497)" fill="#d4af37"/><path d="M261.306,56.718c-4.986-.041-5.877-3.839-6.245-5.469l-.041-.293c-.564-2.38-.486-8.35-.446-12.315V36.383c0-5.387.123-9.434.813-11.4s1.782-3.007,3.341-3.007c1.856,0,2.877.876,3.568,3.048.769,2.465.743,7.934.743,10.566a89.208,89.208,0,0,1-.4,10.269c-.241,1.463-.687,3.048-2.068,3.757a.717.717,0,0,1-.973-.334.743.743,0,0,1,.327-1c.646-.334,1.013-1.088,1.255-2.673.4-2.6.446-9.282.446-10.024,0-2.339,0-7.852-.687-10.106-.527-1.712-1.136-2-2.19-2-.609,0-1.337.208-1.945,1.964-.65,1.879-.743,6.386-.743,10.938,0,.627-.041,1.377-.041,2.257-.037,3.88-.078,9.813.449,11.981l.078.293c.408,1.712.973,4.3,4.867,4.3h.082c5.959-.045,8.064-10.232,8.064-18.957-.022-13.492-3.386-19.8-10.681-19.8-7.381,0-10.826,6.052-10.826,19.08,0,7.14.973,12.319,2.97,15.827a12.358,12.358,0,0,0,.813,1.17.794.794,0,0,1-.082,1.043.7.7,0,0,1-1.014-.085,8.793,8.793,0,0,1-.932-1.333c-2.191-3.8-3.2-9.063-3.2-16.622,0-13.863,4.013-20.583,12.285-20.583,10.863,0,12.159,12.152,12.159,21.3,0,9.894-2.551,20.457-9.653,20.457Z" transform="translate(-143.187 -9.39)" fill="#d4af37"/><path d="M260.426,56.375h-.085c-5.469-.045-6.423-4.3-6.783-5.9v-.045l-.037-.267c-.561-2.387-.5-7.967-.46-12.048V35.465c0-5.669.141-9.586.843-11.584.787-2.228,2.083-3.379,3.85-3.379,2.109,0,3.341,1.028,4.084,3.438s.743,7.585.743,10.355v.672a86.974,86.974,0,0,1-.416,10.069c-.249,1.485-.742,3.341-2.361,4.162a1.359,1.359,0,0,1-1.054.048,1.2,1.2,0,0,1-.683-.657,1.318,1.318,0,0,1,.6-1.73c.308-.156.679-.561.939-2.25.42-2.688.438-9.865.438-9.935,0-2.324,0-7.767-.665-9.943-.471-1.537-.913-1.611-1.656-1.611-.3,0-.869,0-1.418,1.589-.616,1.778-.7,6.222-.7,10.767v.954c0,.345-.026.832-.026,1.3-.03,3.141-.1,9.653.431,11.851l.1.353c.4,1.7.9,3.817,4.31,3.817h.082c5.2-.037,7.507-9.282,7.507-18.4,0-13.124-3.208-19.235-10.1-19.235-6.995-.011-10.258,5.873-10.258,18.512,0,7.021.939,12.1,2.874,15.53.037.052.085.123.137.212a7.607,7.607,0,0,0,.635.9,1.351,1.351,0,0,1-.145,1.816,1.274,1.274,0,0,1-.988.312,1.184,1.184,0,0,1-.832-.468,9.324,9.324,0,0,1-.962-1.374c-2.25-3.909-3.293-9.282-3.293-16.926,0-14.227,4.2-21.14,12.842-21.14,11.4,0,12.716,12.471,12.716,21.853C270.628,45.5,267.948,56.375,260.426,56.375Zm-.082-1.114h.082c6.7,0,9.089-10.28,9.089-19.9,0-8.91-1.2-20.739-11.6-20.739-7.893,0-11.728,6.549-11.728,20.026,0,7.425,1,12.623,3.13,16.336a8.347,8.347,0,0,0,.876,1.255l.022.03a.085.085,0,0,0,.063.033.185.185,0,0,0,.134-.041.241.241,0,0,0,.019-.267,9.466,9.466,0,0,1-.717-1.021c-.048-.078-.085-.137-.115-.178l-.033-.052c-2.042-3.6-3.033-8.87-3.033-16.1,0-13.4,3.616-19.636,11.383-19.636,7.652,0,11.216,6.464,11.216,20.349,0,9.4-2.265,19.469-8.617,19.514h-.085c-4.288,0-4.982-2.926-5.395-4.671l-.089-.334c-.5-2.057-.52-7.054-.468-12.137,0-.475,0-.917.026-1.325v-.924c0-5.354.13-9.282.761-11.138.561-1.619,1.322-2.339,2.473-2.339,1.463,0,2.176.627,2.721,2.4.713,2.335.713,7.893.713,10.269,0,.071-.019,7.34-.453,10.106-.267,1.76-.717,2.651-1.552,3.082a.219.219,0,0,0-.067.286.1.1,0,0,0,.063.059.219.219,0,0,0,.167,0c1.147-.59,1.53-2.023,1.749-3.341a73.287,73.287,0,0,0,.4-9.887V34.3c0-2.71,0-7.752-.7-10.024-.616-1.938-1.437-2.658-3.037-2.658-1.262,0-2.176.861-2.8,2.636-.646,1.856-.78,5.814-.78,11.212v2.647c-.037,3.806-.1,9.564.434,11.8v.052l.037.267C255.013,51.861,255.785,55.206,260.344,55.262Z" transform="translate(-142.225 -8.472)" fill="#d4af37"/><path d="M322.469,46.769l-.041-.16a.743.743,0,0,1,.445-.854l6.067-2.432a.794.794,0,0,1,.609.041.65.65,0,0,1,.371.486c.486,2.228,1.055,4.258,2.97,4.827a2.866,2.866,0,0,0,2.636-.408,3.237,3.237,0,0,0,1.21-2.673,3.767,3.767,0,0,0-2.554-3.65.743.743,0,0,1,.65-1.3A5.167,5.167,0,0,1,338.2,45.6a4.767,4.767,0,0,1-1.83,3.85,4.258,4.258,0,0,1-3.891.65c-2.514-.743-3.367-3.2-3.813-5.068l-4.619,1.856c.973,3.486,2.714,8.8,9.809,8.8a13.191,13.191,0,0,0,5.391-1.054,9.4,9.4,0,0,0,4.827-8.8,7.806,7.806,0,0,0-4.7-7.255,30.446,30.446,0,0,0-4.826-1.381c-4.786-1.051-9.772-2.146-10.867-8.227a10.024,10.024,0,0,1,2.109-8.432,11.268,11.268,0,0,1,8.595-3.935c5.268,0,9.04,3.245,10.663,9.122a.765.765,0,0,1-.4.854l-5.669,2.681a.787.787,0,0,1-.609,0,.694.694,0,0,1-.4-.486c-.327-1.418-.891-3.122-2.313-3.687a2.545,2.545,0,0,0-3.282,1.377,3.243,3.243,0,0,0,1.218,4.214.743.743,0,0,1,.2,1.014.765.765,0,0,1-1.054.163,4.666,4.666,0,0,1-1.7-6.041,4.017,4.017,0,0,1,5.2-2.068,5.352,5.352,0,0,1,2.918,3.813l4.34-2.027c-1.1-3.527-3.527-7.459-9.081-7.459a9.75,9.75,0,0,0-7.459,3.4,8.495,8.495,0,0,0-1.786,7.214c.932,5.109,5.231,6.081,9.731,7.095a30.709,30.709,0,0,1,5.068,1.418c3.364,1.34,5.472,4.541,5.6,8.595.16,4.381-2.109,8.472-5.636,10.177a14.865,14.865,0,0,1-6.041,1.177C325.306,57.15,323.442,50.378,322.469,46.769Z" transform="translate(-190.851 -10.428)" fill="#d4af37"/><path d="M332.916,56.8c-9.018,0-10.986-7.288-11.929-10.793l-.045-.171a1.3,1.3,0,0,1,.791-1.507L327.8,41.9a1.352,1.352,0,0,1,1.021.041,1.2,1.2,0,0,1,.705.895c.464,2.12.977,3.924,2.573,4.4a2.339,2.339,0,0,0,2.135-.312,2.7,2.7,0,0,0,1-2.228c0-1.719-.858-2.48-2.228-3.148a1.188,1.188,0,0,1-.65-.743,1.349,1.349,0,0,1,.059-.954,1.288,1.288,0,0,1,1.708-.609A5.75,5.75,0,0,1,337.82,44.7a5.358,5.358,0,0,1-2.046,4.3,4.827,4.827,0,0,1-4.377.743c-2.5-.743-3.52-2.97-4.039-4.849l-3.572,1.441c.858,3.007,2.569,7.912,9.141,7.912a12.623,12.623,0,0,0,5.153-1,8.83,8.83,0,0,0,4.507-8.276,7.238,7.238,0,0,0-4.355-6.757,29.7,29.7,0,0,0-4.737-1.351c-4.756-1.047-10.132-2.228-11.29-8.677a10.555,10.555,0,0,1,2.228-8.884,11.881,11.881,0,0,1,9.025-4.136c5.525,0,9.5,3.386,11.2,9.531a1.322,1.322,0,0,1-.691,1.485l-5.688,2.681a1.366,1.366,0,0,1-1.054,0,1.258,1.258,0,0,1-.743-.895c-.267-1.17-.769-2.8-1.971-3.282a1.988,1.988,0,0,0-2.58,1.114,2.692,2.692,0,0,0,1.039,3.512,1.377,1.377,0,0,1,.538.809,1.188,1.188,0,0,1-.212.991,1.329,1.329,0,0,1-1.834.275A5.188,5.188,0,0,1,329.6,24.65a4.582,4.582,0,0,1,5.9-2.339,5.519,5.519,0,0,1,3.048,3.553l3.315-1.548c-1.485-4.385-4.321-6.6-8.4-6.6a9.189,9.189,0,0,0-7.032,3.2,7.972,7.972,0,0,0-1.663,6.757c.869,4.752,4.778,5.632,9.3,6.653a30.661,30.661,0,0,1,5.157,1.448c3.587,1.426,5.81,4.827,5.94,9.092.167,4.593-2.228,8.91-5.94,10.693A15.38,15.38,0,0,1,332.916,56.8ZM322.056,45.727c.939,3.483,2.688,9.961,10.852,9.961a14.615,14.615,0,0,0,5.8-1.114c3.341-1.611,5.473-5.491,5.32-9.653-.115-3.813-2.075-6.839-5.246-8.1a29.961,29.961,0,0,0-4.975-1.392c-4.5-1.025-9.152-2.072-10.154-7.548a9.052,9.052,0,0,1,1.9-7.67,10.325,10.325,0,0,1,7.889-3.605c4.693,0,8.02,2.714,9.612,7.849l.145.464-5.369,2.51-.182-.627c-.535-1.856-1.359-2.948-2.6-3.449a3.483,3.483,0,0,0-4.455,1.793,4.13,4.13,0,0,0,1.518,5.343.215.215,0,0,0,.29-.041.082.082,0,0,0,0-.082.312.312,0,0,0-.1-.152,3.781,3.781,0,0,1-1.385-4.9,3.086,3.086,0,0,1,3.995-1.648c1.686.672,2.317,2.651,2.643,4.084a.134.134,0,0,0,.07.093.219.219,0,0,0,.193,0l5.647-2.662a.2.2,0,0,0,.1-.212c-1.544-5.606-5.142-8.7-10.121-8.7A10.718,10.718,0,0,0,325.275,20a9.463,9.463,0,0,0-1.986,7.975c1.028,5.714,5.591,6.716,10.425,7.8a31.054,31.054,0,0,1,4.923,1.411,8.317,8.317,0,0,1,5.049,7.752,9.955,9.955,0,0,1-5.135,9.319,13.79,13.79,0,0,1-5.636,1.114c-7.778,0-9.512-6.219-10.347-9.207l-.141-.5,5.684-2.294.148.631c.438,1.834,1.225,4.025,3.427,4.663a3.69,3.69,0,0,0,3.393-.553,4.251,4.251,0,0,0,1.608-3.412,4.634,4.634,0,0,0-3.052-4.455.208.208,0,0,0-.219.052c-.03.052-.022.208.041.238a4.314,4.314,0,0,1,2.885,4.158,3.769,3.769,0,0,1-1.437,3.119,3.423,3.423,0,0,1-3.126.5c-2.179-.65-2.825-2.851-3.341-5.242a.186.186,0,0,0-.037-.093.371.371,0,0,0-.182-.037l-6.081,2.436a.178.178,0,0,0-.111.212Z" transform="translate(-189.907 -9.522)" fill="#d4af37"/><path d="M398.913,57.144a.743.743,0,0,1-.743-.743V43.474a4.455,4.455,0,0,1,4.392-4.411h12V34h-8.108a.743.743,0,0,1-.743-.743V24.168a.743.743,0,0,1,.743-.743H417.22V18.064H399.644V36.709a.742.742,0,0,1-1.459,0V17.333a.743.743,0,0,1,.742-.743h19.054a.743.743,0,0,1,.743.743v6.835a.743.743,0,0,1-.743.743H407.214v7.626h8.068a.743.743,0,0,1,.743.743v6.512a.694.694,0,0,1-.743.691H402.725a3.071,3.071,0,0,0-3.082,3.041V55.685h17.595V50.29H406.472a.743.743,0,0,1-.743-.743V44.535a.743.743,0,1,1,1.459,0v4.3h10.767a.742.742,0,0,1,.742.743v6.85a.742.742,0,0,1-.742.743Z" transform="translate(-238.484 -10.421)" fill="#d4af37"/><path d="M417.048,56.776H397.995a1.288,1.288,0,0,1-1.285-1.288V42.549a5.008,5.008,0,0,1,4.934-4.968h11.461V33.639h-7.57a1.288,1.288,0,0,1-1.292-1.3v-9.1a1.285,1.285,0,0,1,1.285-1.285h10.225V17.7H399.283V35.785a1.288,1.288,0,0,1-2.573,0V16.408a1.288,1.288,0,0,1,1.285-1.288h19.054a1.292,1.292,0,0,1,1.3,1.288v6.835a1.292,1.292,0,0,1-1.288,1.288H406.842V31.04h7.511a1.285,1.285,0,0,1,1.284,1.285v6.542a1.255,1.255,0,0,1-1.285,1.247H401.807a2.506,2.506,0,0,0-2.525,2.484V54.2h16.469V49.923H405.535a1.285,1.285,0,0,1-1.292-1.285V43.611a1.288,1.288,0,1,1,2.573,0V47.35h10.225a1.292,1.292,0,0,1,1.311,1.288v6.85a1.292,1.292,0,0,1-1.3,1.288ZM401.644,38.7a3.9,3.9,0,0,0-3.82,3.854V55.481a.171.171,0,0,0,.171.174h19.054a.171.171,0,0,0,.174-.174V48.638a.171.171,0,0,0-.174-.174h-11.32V43.611a.174.174,0,1,0-.345,0v5.027a.167.167,0,0,0,.171.171h11.313v6.508h-18.7V42.6a3.62,3.62,0,0,1,3.638-3.6h12.527c.041,0,.171,0,.171-.134V32.339a.167.167,0,0,0-.171-.171h-8.606V23.433h11.339a.171.171,0,0,0,.171-.189V16.408a.171.171,0,0,0-.174-.174H397.995a.171.171,0,0,0-.171.174V35.785c0,.123.13.134.171.134s.175,0,.175-.134v-19.2h18.7v6.5H405.535a.167.167,0,0,0-.178.156v9.1a.167.167,0,0,0,.171.174h8.666V38.7Z" transform="translate(-237.566 -9.497)" fill="#d4af37"/><path d="M467.563,57.144a.743.743,0,0,1-.743-.743V29.332c0-3.69,2.068-4.177,3.809-4.177h.891a.743.743,0,1,1,0,1.463h-.891c-1.418,0-2.35.2-2.35,2.714v26.36h5.877V18.064h-5.862v3.687a.743.743,0,1,1-1.459,0V17.333a.743.743,0,0,1,.743-.743h7.3a.743.743,0,0,1,.743.743v39.08a.743.743,0,0,1-.743.743Z" transform="translate(-281.646 -10.421)" fill="#d4af37"/><path d="M473.941,56.776h-7.3a1.288,1.288,0,0,1-1.285-1.288V28.408c0-3.185,1.429-4.734,4.366-4.734h.891a1.288,1.288,0,1,1,0,2.577h-.891c-1.154,0-1.793,0-1.793,2.157V54.2h4.763V17.7H467.93v3.13a1.288,1.288,0,1,1-2.573,0V16.408a1.288,1.288,0,0,1,1.285-1.288h7.3a1.288,1.288,0,0,1,1.285,1.288v39.08A1.288,1.288,0,0,1,473.941,56.776Zm-4.218-31.989c-1.689,0-3.252.442-3.252,3.62v27.08a.171.171,0,0,0,.171.174h7.3a.167.167,0,0,0,.171-.174V16.408a.17.17,0,0,0-.171-.174h-7.3a.171.171,0,0,0-.171.174v4.418a.175.175,0,1,0,.345,0V16.583h6.991V55.317h-6.991V28.408c0-2.736,1.065-3.271,2.907-3.271h.891a.175.175,0,1,0,0-.349Z" transform="translate(-280.725 -9.497)" fill="#d4af37"/><path d="M527.708,36.386c0,8.513-1.823,14.431-5.591,18.04a11.485,11.485,0,0,1-7.99,2.718h-9.809a.743.743,0,1,1,0-1.459h9.809a10.264,10.264,0,0,0,7.017-2.313c3.445-3.341,5.146-8.877,5.146-16.986,0-5.432-.932-12.649-5.227-16.013-2.718-2.15-5.636-2.309-9.731-2.309H505.05V46.117c0,2.513.932,2.714,2.391,2.714h6.445c1.218,0,2.877-.2,3.527-2.068.743-2.146.891-7.255.891-9.653,0-12.285-2.027-12.252-4.418-12.252H512.4V44.818a.694.694,0,0,1-.69.743.743.743,0,0,1-.743-.743V24.142a.743.743,0,0,1,.743-.769h2.19c4.084,0,5.877,1.986,5.877,13.737,0,.282-.041,7.173-.973,10.091-.486,1.422-1.7,3.082-4.9,3.082h-6.46c-1.786,0-3.854-.486-3.854-4.173V17.333a.742.742,0,0,1,.742-.743h7c4.258,0,7.541.163,10.622,2.6C525.722,22.155,527.708,28.118,527.708,36.386Z" transform="translate(-304.669 -10.421)" fill="#d4af37"/><path d="M513.32,56.776h-9.809a1.288,1.288,0,1,1,0-2.573h9.809a9.654,9.654,0,0,0,6.642-2.172c3.341-3.215,4.964-8.639,4.964-16.57,0-5.313-.869-12.33-5.008-15.56-2.577-2.038-5.391-2.19-9.386-2.19H504.8V45.193c0,2.157.65,2.157,1.834,2.157h6.445c1.192,0,2.48-.2,3-1.693.68-1.994.869-6.891.869-9.464,0-5.439-.4-8.862-1.24-10.455-.638-1.225-1.411-1.233-2.573-1.233h-1.014V43.893a1.251,1.251,0,0,1-1.247,1.288,1.288,1.288,0,0,1-1.285-1.288V23.217a1.322,1.322,0,0,1,1.284-1.325h2.191c4.99,0,6.434,3.208,6.434,14.3,0,.071-.026,7.217-1,10.262-.546,1.589-1.927,3.468-5.435,3.468h-6.43c-1.091,0-4.411,0-4.411-4.73V16.408a1.292,1.292,0,0,1,1.288-1.288h7.013c4.407,0,7.774.2,10.967,2.718,3.9,3.063,5.966,9.159,5.966,17.624,0,8.7-1.886,14.728-5.766,18.441A11.982,11.982,0,0,1,513.32,56.776Zm-9.809-1.459a.171.171,0,0,0-.175.171.175.175,0,0,0,.175.174h9.809a10.912,10.912,0,0,0,7.611-2.573c3.642-3.482,5.413-9.252,5.413-17.628,0-8.112-1.916-13.9-5.543-16.752-2.918-2.3-5.963-2.476-10.277-2.476h-7.013a.174.174,0,0,0-.174.174V45.193c0,3.178,1.586,3.616,3.3,3.616h6.445c2.291,0,3.765-.91,4.377-2.7.917-2.874.943-9.846.943-9.913,0-12.3-2.009-13.188-5.32-13.188h-2.191a.208.208,0,0,0-.171.212V43.893a.167.167,0,0,0,.171.174c.122,0,.134-.134.134-.174v-20.5h2.057c1.27,0,2.651,0,3.609,1.83s1.374,5.268,1.374,10.971c0,.743-.026,7.188-.921,9.828a3.884,3.884,0,0,1-4.054,2.443h-6.453c-1.556,0-2.948-.249-2.948-3.271V16.583h6.839c4.229,0,7.217.167,10.076,2.428,4.5,3.523,5.439,10.889,5.439,16.451,0,8.246-1.737,13.934-5.316,17.387a10.748,10.748,0,0,1-7.4,2.469Z" transform="translate(-303.862 -9.497)" fill="#d4af37"/><path d="M594.993,56.743c-4.986-.041-5.877-3.839-6.241-5.469l-.041-.293c-.568-2.38-.486-8.35-.446-12.315V36.409c0-5.387.119-9.434.809-11.4S590.858,22,592.4,22c1.857,0,2.881.876,3.568,3.048.772,2.465.742,7.934.742,10.566a89.178,89.178,0,0,1-.4,10.269c-.245,1.463-.691,3.048-2.068,3.757a.713.713,0,0,1-.973-.334.742.742,0,0,1,.323-1c.649-.334,1.013-1.088,1.255-2.673.409-2.6.449-9.282.449-10.024,0-2.339,0-7.852-.691-10.106-.527-1.712-1.136-2-2.19-2-.605,0-1.337.208-1.945,1.964-.646,1.879-.742,6.386-.742,10.938,0,.627-.041,1.377-.041,2.257-.041,3.88-.082,9.813.446,11.981l.082.293c.4,1.712.973,4.3,4.864,4.3h.082c5.94-.045,8.068-10.232,8.068-18.957,0-13.492-3.368-19.8-10.659-19.8-7.377,0-10.822,6.052-10.822,19.08,0,7.14.973,12.319,2.97,15.827a12.136,12.136,0,0,0,.81,1.169.787.787,0,0,1-.082,1.043.7.7,0,0,1-1.014-.085,8.824,8.824,0,0,1-.932-1.333c-2.2-3.772-3.211-9.048-3.211-16.607,0-13.863,4.014-20.583,12.282-20.583,10.863,0,12.163,12.152,12.163,21.3,0,9.894-2.555,20.457-9.653,20.457Z" transform="translate(-352.982 -9.416)" fill="#d4af37"/><path d="M594.088,56.394H594c-5.469-.045-6.423-4.3-6.783-5.9v-.045l-.037-.267c-.557-2.387-.5-7.967-.457-12.048V35.484c0-5.669.141-9.586.839-11.584.787-2.228,2.083-3.379,3.85-3.379,2.109,0,3.341,1.028,4.084,3.438s.742,7.585.742,10.355v.672a87.012,87.012,0,0,1-.416,10.069c-.249,1.485-.742,3.341-2.361,4.162a1.359,1.359,0,0,1-1.054.048,1.21,1.21,0,0,1-.683-.657,1.318,1.318,0,0,1,.6-1.73c.3-.16.68-.561.936-2.25.423-2.688.442-9.865.442-9.935,0-2.324,0-7.767-.665-9.943-.475-1.537-.917-1.611-1.659-1.611-.3,0-.869,0-1.418,1.589-.613,1.778-.7,6.222-.7,10.767,0,.293,0,.609-.019.954s-.022.832-.022,1.3c-.034,3.137-.1,9.653.431,11.851l.093.353c.4,1.7.9,3.817,4.31,3.817h.082c5.2-.037,7.511-9.282,7.511-18.4,0-13.124-3.212-19.235-10.106-19.235-7.006,0-10.266,5.885-10.266,18.523,0,7.021.939,12.1,2.874,15.527l.137.215a7.949,7.949,0,0,0,.631.9,1.352,1.352,0,0,1-.145,1.816,1.274,1.274,0,0,1-.988.312,1.184,1.184,0,0,1-.831-.468A9.2,9.2,0,0,1,582,51.586c-2.254-3.909-3.293-9.282-3.293-16.926,0-14.227,4.2-21.14,12.839-21.14,11.4,0,12.72,12.471,12.72,21.853C604.294,45.52,601.614,56.394,594.088,56.394Zm-.078-1.114h.078c6.705,0,9.092-10.28,9.092-19.9,0-8.91-1.2-20.739-11.606-20.739-7.89,0-11.725,6.549-11.725,20.026,0,7.425.991,12.623,3.126,16.336a8.363,8.363,0,0,0,.876,1.255l.026.03a.071.071,0,0,0,.063.033.177.177,0,0,0,.13-.041.248.248,0,0,0,.023-.271,9.444,9.444,0,0,1-.72-1.017l-.111-.178-.037-.052c-2.038-3.6-3.03-8.87-3.03-16.1,0-13.4,3.616-19.636,11.38-19.636,7.655,0,11.22,6.464,11.22,20.349,0,9.4-2.265,19.469-8.621,19.514h-.085c-4.288,0-4.979-2.926-5.391-4.674l-.093-.327c-.5-2.064-.52-7.054-.464-12.141,0-.475,0-.917.022-1.325,0-.334.018-.642.018-.924,0-5.354.13-9.282.743-11.138.561-1.619,1.325-2.339,2.472-2.339,1.485,0,2.179.627,2.722,2.4.716,2.335.716,7.893.716,10.269,0,.071-.022,7.34-.453,10.106-.271,1.76-.72,2.651-1.552,3.082a.223.223,0,0,0-.07.286.122.122,0,0,0,.063.059.219.219,0,0,0,.167,0c1.147-.59,1.533-2.023,1.752-3.341a74.15,74.15,0,0,0,.4-9.887v-.676c0-2.71,0-7.752-.705-10.024-.616-1.938-1.437-2.658-3.037-2.658-1.258,0-2.176.861-2.8,2.636-.646,1.856-.776,5.814-.776,11.212v2.64c-.041,3.809-.1,9.568.435,11.806v.052l.037.267C588.679,51.88,589.447,55.225,594.01,55.28Z" transform="translate(-351.995 -8.491)" fill="#d4af37"/><path d="M661.008,18.064V55.685h6.081V31.359a.718.718,0,0,1,.081-.282.5.5,0,0,1,.2-.2c.078-.041.16-.123.241-.123h.286a.743.743,0,0,1,.282.082.5.5,0,0,1,.2.2l.078.082L679.7,52.6l.8,1.266c.772,1.177,1.541,1.827,3.813,1.827h2.554a.743.743,0,0,1,0,1.459h-2.554a5.369,5.369,0,0,1-5.068-2.514l-.809-1.259v-.041l-9.894-18.935V56.42a.743.743,0,0,1-.743.743H660.28a.7.7,0,0,1-.742-.743V17.333a.742.742,0,0,1,.742-.743h5.74c2.636,0,3.813,1.136,4.868,3l15.255,27.619V18.064h-6.311v8.513a.743.743,0,0,1-1.459,0V17.333a.743.743,0,0,1,.742-.743h7.8a.694.694,0,0,1,.687.743v32.8a.739.739,0,0,1-.078.282.494.494,0,0,1-.2.2c-.082.041-.163.119-.245.119h-.26a.823.823,0,0,1-.286-.078.613.613,0,0,1-.242-.2l-.041-.082L669.662,20.3c-.891-1.582-1.622-2.228-3.609-2.228Z" transform="translate(-402.813 -10.421)" fill="#d4af37"/><path d="M685.952,56.776H683.4a5.915,5.915,0,0,1-5.532-2.766l-.887-1.4v-.067l-8.8-16.8V55.488a1.288,1.288,0,0,1-1.285,1.288h-7.54a1.255,1.255,0,0,1-1.288-1.288V16.408a1.292,1.292,0,0,1,1.288-1.288h5.74c2.9,0,4.236,1.314,5.35,3.286l14.216,25.718V17.7h-5.2v7.956a1.288,1.288,0,0,1-2.573,0V16.408a1.288,1.288,0,0,1,1.285-1.288h7.8a1.255,1.255,0,0,1,1.244,1.288v32.8a1.311,1.311,0,0,1-.137.531,1.067,1.067,0,0,1-.453.453.88.88,0,0,1-.494.178h-.245a1.33,1.33,0,0,1-.535-.137,1.115,1.115,0,0,1-.49-.453l-.041-.082-16.57-30.073c-.821-1.459-1.389-1.942-3.122-1.942h-4.489V54.189h4.968V30.427a1.318,1.318,0,0,1,.141-.535,1.04,1.04,0,0,1,.46-.442.839.839,0,0,1,.49-.182h.286a1.3,1.3,0,0,1,.531.141,1.076,1.076,0,0,1,.4.371l.093.093,11.257,21.534.8,1.236c.62.947,1.188,1.57,3.341,1.57h2.554a1.288,1.288,0,0,1,0,2.573Zm-7.86-4.492.72,1.114c1.069,1.626,2.361,2.261,4.6,2.261h2.554c.123,0,.13-.134.13-.174s0-.171-.13-.171h-2.554c-2.454,0-3.4-.743-4.277-2.079l-.839-1.3L667.091,30.524l-.108-.13h-.174l-.074.045a.131.131,0,0,0,0,.041V55.329h-7.206V16.583H665.1c2.261,0,3.156.843,4.084,2.51l16.629,30.14h.026l.067.026H686l.078-.048a.314.314,0,0,0,0-.037V16.408c0-.041,0-.174-.13-.174h-7.8a.171.171,0,0,0-.171.174v9.245a.174.174,0,0,0,.345,0v-9.07h7.425V48.445l-16.258-29.5c-.969-1.715-2-2.714-4.377-2.714h-5.755a.17.17,0,0,0-.124.05.172.172,0,0,0-.05.125v39.08a.149.149,0,0,0,.175.174h7.54a.167.167,0,0,0,.171-.174V31.207ZM685.855,49.281Zm.271-.026ZM666.7,30.446Zm0-.063Z" transform="translate(-401.89 -9.497)" fill="#d4af37"/><path d="M50.609,14.2,44.825,1.436a1.051,1.051,0,0,0-1.916,0L37.129,14.208a1.051,1.051,0,0,0,.371,1.307l3.419,2.332a28.479,28.479,0,0,1,.308,4.726,10.063,10.063,0,0,1-1.8,4.953C37.552,29.939,34.158,30.8,31.6,30.8H30.364V17.434l2.658-1.8a1.051,1.051,0,0,0,.342-1.366L26.083.53a1.032,1.032,0,0,0-1.83,0L16.972,14.267a1.054,1.054,0,0,0,.338,1.366l2.658,1.8V30.8h-.835c-3.772-.174-6.475-1.381-8.027-3.586a10.347,10.347,0,0,1-1.7-5.049,20.4,20.4,0,0,1,.42-3.876l3.457-2.822a1.069,1.069,0,0,0,.3-1.27L7.8,1.47A1.077,1.077,0,0,0,7.245.9a1.054,1.054,0,0,0-1.374.535L.1,14.2a1.069,1.069,0,0,0,.3,1.27l2.84,2.309a35.486,35.486,0,0,0-.6,5.142,17.858,17.858,0,0,0,2.19,8.094C7.8,36.269,13.1,38.2,17.009,38.886c.5.089,1.006.163,1.533.223l.743.809a3.2,3.2,0,0,0,1.028,5.651,3.208,3.208,0,0,0,1.879,4.184v3.379a1.062,1.062,0,0,0,1.062,1.058h4.2a1.058,1.058,0,0,0,1.054-1.058V49.753a3.2,3.2,0,0,0,1.882-4.184,3.2,3.2,0,0,0,1.028-5.651l.743-.809c.531-.059,1.036-.134,1.533-.223a18.144,18.144,0,0,0,10.2-5.109,16.2,16.2,0,0,0,4-8.992,28.741,28.741,0,0,0-.62-7.184l2.97-2.09A1.069,1.069,0,0,0,50.609,14.2ZM26.28,51.962H24.052V49.735H26.28Zm1.314-4.084H23.139a1.069,1.069,0,0,1-.98-.594,1.114,1.114,0,0,1,1-1.634h4.455a1.073,1.073,0,0,1,.98.59,1.114,1.114,0,0,1-.995,1.637Zm2.228-4.455h-8.91a1.069,1.069,0,0,1-.98-.594,1.114,1.114,0,0,1,1-1.634h8.91a1.073,1.073,0,0,1,.98.59,1.114,1.114,0,0,1-.995,1.637Zm15.7-26.891a1.043,1.043,0,0,0-.427,1.08,29.86,29.86,0,0,1,.743,7.084,13.985,13.985,0,0,1-3.457,7.734,16.121,16.121,0,0,1-9.04,4.422c-.568.1-1.147.178-1.767.241a1.077,1.077,0,0,0-.676.33l-1.79,1.916H21.6l-1.793-1.916a1.058,1.058,0,0,0-.672-.33c-.62-.063-1.2-.141-1.767-.241-3.471-.605-8.146-2.272-10.722-6.765a15.493,15.493,0,0,1-1.908-7.054,34.973,34.973,0,0,1,.679-5.227,1.054,1.054,0,0,0-.371-1.014l-2.7-2.165L6.84,4.833l4.489,9.794L8.207,17.148a1.051,1.051,0,0,0-.371.613,23.883,23.883,0,0,0-.523,4.808,12.3,12.3,0,0,0,2.079,6.026c1.953,2.744,5.2,4.232,9.672,4.429h2.079A1.058,1.058,0,0,0,22.2,31.966V17.037a1.051,1.051,0,0,0-.468-.876l-2.358-1.57L25.352,3.478,31.337,14.59l-2.358,1.57a1.054,1.054,0,0,0-.472.876V31.969a1.062,1.062,0,0,0,1.058,1.058H31.6c3.954,0,7.5-1.515,9.479-4.051a11.871,11.871,0,0,0,2.228-5.94,32.369,32.369,0,0,0-.371-5.692,1.058,1.058,0,0,0-.453-.743l-3.07-2.064,4.455-9.727,4.455,9.738Z" transform="translate(-0.002 0.025)" fill="#d4af37"/><path d="M65.78,32.995v18.9a1.091,1.091,0,0,0,.743,1.043,1.114,1.114,0,0,0,1.485-.995V32.946a1.114,1.114,0,0,0-1.485-1A1.092,1.092,0,0,0,65.78,32.995Z" transform="translate(-41.359 -20.039)" fill="#d4af37"/><path d="M66.674,94.43a1.054,1.054,0,1,0,1.054,1.054A1.054,1.054,0,0,0,66.674,94.43Z" transform="translate(-41.258 -59.362)" fill="#d4af37"/></svg>