<svg xmlns="http://www.w3.org/2000/svg" width="33" height="33.002" viewBox="0 0 33 33.002">
  <path id="Trazado_358" data-name="Trazado 358" d="M14.438,0,12.376,4.125l-1.869.646L6.188,3.094,3.094,6.188l1.677,4.319-.646,1.869L0,14.438v4.125l4.125,2.063A7.454,7.454,0,0,0,4.963,22.5L3.094,26.814l3.094,3.094,4.319-1.677,1.869.646L14.438,33h4.125l2.063-4.125a7.455,7.455,0,0,0,1.869-.837l4.319,1.677,3.094-3.094L28.231,22.3c.206-.619.631-1.25.837-1.869L33,18.566V14.44l-4.125-2.063a7.455,7.455,0,0,0-.837-1.869L29.906,6.19,26.812,3.1,22.493,4.773l-1.869-.646L18.562,0H14.436ZM16.5,10.313A6.077,6.077,0,0,1,22.689,16.5,6.077,6.077,0,0,1,16.5,22.689,6.077,6.077,0,0,1,10.313,16.5,6.077,6.077,0,0,1,16.5,10.313Z"/>
</svg>
