<?xml version="1.0" encoding="utf-8"?>
<!-- Generator: Adobe Illustrator 24.1.0, SVG Export Plug-In . SVG Version: 6.00 Build 0)  -->
<svg version="1.1" id="Capa_1" xmlns="http://www.w3.org/2000/svg" xmlns:xlink="http://www.w3.org/1999/xlink" x="0px" y="0px"
	 viewBox="0 0 33 33" style="enable-background:new 0 0 33 33;" xml:space="preserve" width="33" height="33">
	<style type="text/css">
		.st0{fill-rule:evenodd;clip-rule:evenodd;fill:#576271;}
	</style>
	<path class="st0" d="M14.4,0l-2.1,4.1l-1.9,0.6L6.2,3.1L3.1,6.2l1.7,4.3l-0.6,1.9L0,14.4v4.1l4.1,2.1c0.2,0.6,0.4,1.2,0.8,1.9l-1.9,4.3l3.1,3.1
		l4.3-1.7l1.9,0.6l2.1,4.1h4.1l2.1-4.1c0.6-0.2,1.2-0.4,1.9-0.8l4.3,1.7l3.1-3.1l-1.7-4.3c0.2-0.6,0.6-1.2,0.8-1.9l3.9-1.9v-4.1
		l-4.1-2.1c-0.2-0.6-0.4-1.2-0.8-1.9l1.9-4.3l-3.1-3.1l-4.3,1.7l-1.9-0.6L18.6,0L14.4,0L14.4,0z M16.5,10.3c3.5,0,6.2,2.7,6.2,6.2
		s-2.7,6.2-6.2,6.2s-6.2-2.7-6.2-6.2S13,10.3,16.5,10.3z"/>
</svg>
