<svg xmlns="http://www.w3.org/2000/svg" width="33" height="30.705" viewBox="0 0 33 30.705">
  <g id="Grupo_79" data-name="Grupo 79" transform="translate(5.45 -5.8)">
    <g id="Grupo_78" data-name="Grupo 78" transform="translate(-5.45 5.8)">
      <path id="Trazado_354" data-name="Trazado 354" d="M34.352,5.8H3.682A1.173,1.173,0,0,0,2.5,6.982v28.34a1.182,1.182,0,0,0,2.365,0V8.2H14.5v3.582H9.629a1.173,1.173,0,0,0-1.182,1.182V29.411a1.173,1.173,0,0,0,1.182,1.182H33.135a1.173,1.173,0,0,0,1.182-1.182V12.929a1.173,1.173,0,0,0-1.182-1.182H28.267V8.2h6.051a1.2,1.2,0,0,0,.035-2.4ZM29.832,21.17a.935.935,0,0,1-.939.939h-.556v1.669a.846.846,0,0,1-.835.835.776.776,0,0,1-.835-.8V22.144H25.45v1.669a.835.835,0,1,1-1.669,0V22.144H20.443a3.825,3.825,0,1,1,0-1.947h8.415A1,1,0,0,1,29.832,21.17ZM25.9,11.746H16.861V8.2H25.9Z" transform="translate(-2.5 -5.8)"/>
      <circle id="Elipse_13" data-name="Elipse 13" cx="2.912" cy="2.912" r="2.912" transform="translate(11.531 12.457)"/>
    </g>
  </g>
</svg>
