<?xml version="1.0" encoding="utf-8"?>
<!-- Generator: Adobe Illustrator 24.1.0, SVG Export Plug-In . SVG Version: 6.00 Build 0)  -->
<svg version="1.1" id="Capa_1" xmlns="http://www.w3.org/2000/svg" xmlns:xlink="http://www.w3.org/1999/xlink" x="0px" y="0px"
	 viewBox="0 0 33 30.7" style="enable-background:new 0 0 33 30.7;" xml:space="preserve" width="33" height="30.7">
	<style type="text/css">
		.st0{fill-rule:evenodd;clip-rule:evenodd;fill:#576271;}
	</style>
	<path class="st0" d="M31.9,0H1.2C0.5,0,0,0.5,0,1.2v28.3c0,0.7,0.5,1.2,1.2,1.2s1.2-0.5,1.2-1.2V2.4H12V6H7.1C6.5,6,5.9,6.5,5.9,7.2v16.4
		c0,0.7,0.5,1.2,1.2,1.2h23.5c0.7,0,1.2-0.5,1.2-1.2V7.1c0-0.7-0.5-1.2-1.2-1.2h-4.9V2.4h6.1c0.7,0,1.2-0.5,1.2-1.2S32.5,0,31.9,0
		L31.9,0z M27.3,15.4c0,0.5-0.4,0.9-0.9,0.9h-0.6V18c0,0.5-0.4,0.8-0.8,0.8c-0.5,0-0.8-0.3-0.8-0.8v-1.7H23V18
		c0,0.5-0.4,0.8-0.8,0.8c-0.5,0-0.8-0.4-0.8-0.8v-1.7h-3.3c-0.4,1.6-1.9,2.9-3.7,2.9c-2.1,0-3.8-1.7-3.8-3.8s1.7-3.8,3.8-3.8
		c1.8,0,3.3,1.2,3.7,2.9h8.4C26.9,14.4,27.3,14.8,27.3,15.4L27.3,15.4z M23.4,5.9h-9V2.4h9V5.9z"/>
	<circle class="st0" cx="14.3" cy="15.4" r="1.9"/>
</svg>
