<?xml version="1.0" encoding="utf-8"?>
<!-- Generator: Adobe Illustrator 24.1.0, SVG Export Plug-In . SVG Version: 6.00 Build 0)  -->
<svg version="1.1" id="Capa_1" xmlns="http://www.w3.org/2000/svg" xmlns:xlink="http://www.w3.org/1999/xlink" x="0px" y="0px"
	 viewBox="0 0 33 50.2" style="enable-background:new 0 0 33 50.2;" xml:space="preserve" width="33" height="40.2">
	<style type="text/css">
		.st0{fill-rule:evenodd;clip-rule:evenodd;fill:#576271;}
	</style>
	<path class="st0"  d="M3.3,10.5H1c-0.5,0-1,0.4-1,1v37.6c0,0.6,0.5,1,1,1h31c0.5,0,1-0.4,1-1V11.5c0-0.6-0.5-1-1-1h-2.3c0.1,0.4,0.1,0.8,0.1,1.2
		v2.5c0,1.7-1.3,3-3,3H6.2c-1.6,0-3-1.3-3-3v-2.5C3.2,11.3,3.3,10.9,3.3,10.5z M15,24h13c0.6,0,1,0.4,1,1c0,0.5-0.4,1-1,1H15
		c-0.5,0-1-0.5-1-1C14,24.4,14.4,24,15,24z M15,33.5h13c0.6,0,1,0.5,1,1s-0.4,1-1,1H15c-0.5,0-1-0.5-1-1S14.4,33.5,15,33.5z M15,43
		h13c0.6,0,1,0.5,1,1c0,0.6-0.4,1-1,1H15c-0.5,0-1-0.4-1-1C14,43.5,14.4,43,15,43z M4.3,24c0.4-0.4,1-0.4,1.4,0L7,25.3l2.8-2.8
		c0.4-0.4,1-0.4,1.4,0c0.4,0.4,0.4,1,0,1.4l-3.5,3.5c-0.2,0.2-0.5,0.3-0.7,0.3c-0.3,0-0.5-0.1-0.7-0.3l-2.1-2C3.9,25,3.9,24.4,4.3,24
		z M4.3,33.5c0.4-0.4,1-0.4,1.4,0L7,34.9l2.8-2.8c0.4-0.4,1-0.4,1.4,0c0.4,0.4,0.4,1,0,1.4L7.7,37c-0.2,0.2-0.5,0.3-0.7,0.3
		c-0.3,0-0.5-0.1-0.7-0.3l-2.1-2C3.9,34.5,3.9,33.9,4.3,33.5z M4.3,43c0.4-0.4,1-0.4,1.4,0L7,44.3l2.8-2.8c0.4-0.4,1-0.4,1.4,0
		c0.4,0.4,0.4,1,0,1.4l-3.5,3.5c-0.2,0.2-0.5,0.3-0.7,0.3c-0.3,0-0.5-0.1-0.7-0.3l-2.1-2C3.9,44,3.9,43.4,4.3,43z"/>
	<path class="st0" d="M17.1,0c-1.5-0.1-2.9,0.3-4,1.3s-1.7,2.4-1.7,3.8v0.4c0,1.1-0.9,2.1-2.1,2.1c-2.2,0-4.1,1.8-4.1,4.1v2.5c0,0.6,0.4,1,1,1
		h20.7c0.5,0,1-0.4,1-1v-2.5c0-2.2-1.8-4.1-4.1-4.1c-1.1,0-2.1-0.9-2.1-2.1V5.2C21.8,2.6,19.7,0.3,17.1,0z"/>
</svg>
