<svg xmlns="http://www.w3.org/2000/svg" width="25" height="31.726" viewBox="0 0 25 31.726">
  <g id="Grupo_83" data-name="Grupo 83" transform="translate(208 -525.607)">
    <g id="list" transform="translate(-208 524)">
      <g id="Grupo_73" data-name="Grupo 73" transform="translate(5.556 1.607)">
        <g id="Grupo_72" data-name="Grupo 72">
          <path id="Trazado_348" data-name="Trazado 348" d="M172.744,2.317h-2.516a3.477,3.477,0,0,0-6.555,0h-2.514A1.159,1.159,0,0,0,160,3.476V8.11a1.159,1.159,0,0,0,1.159,1.159h11.586A1.159,1.159,0,0,0,173.9,8.11V3.476A1.159,1.159,0,0,0,172.744,2.317Z" transform="translate(-160)"/>
        </g>
      </g>
      <g id="Grupo_75" data-name="Grupo 75" transform="translate(0 5.963)">
        <g id="Grupo_74" data-name="Grupo 74">
          <path id="Trazado_349" data-name="Trazado 349" d="M86.917,64H84.833v2.933a3.037,3.037,0,0,1-3.125,2.933H71.292a3.037,3.037,0,0,1-3.125-2.933V64H66.083A2.026,2.026,0,0,0,64,65.955V89.416a2,2,0,0,0,2.083,1.955H86.917A2,2,0,0,0,89,89.416V65.955A2,2,0,0,0,86.917,64ZM76.2,81.31l-4.167,3.91a1.1,1.1,0,0,1-1.475,0l-2.083-1.955a.936.936,0,0,1,0-1.382,1.091,1.091,0,0,1,1.473,0l1.348,1.263,3.429-3.218a1.091,1.091,0,0,1,1.473,0A.936.936,0,0,1,76.2,81.31Zm0-7.82L72.029,77.4a1.1,1.1,0,0,1-1.475,0l-2.083-1.955a.936.936,0,0,1,0-1.382,1.091,1.091,0,0,1,1.473,0l1.348,1.263,3.429-3.218a1.091,1.091,0,0,1,1.473,0A.936.936,0,0,1,76.2,73.49Zm7.6,10.061H79.625a.98.98,0,1,1,0-1.955h4.167a.98.98,0,1,1,0,1.955Zm0-7.82H79.625a.98.98,0,1,1,0-1.955h4.167a.98.98,0,1,1,0,1.955Z" transform="translate(-64 -64)"/>
        </g>
      </g>
    </g>
  </g>
</svg>
