<svg xmlns="http://www.w3.org/2000/svg" width="33" height="30.247" viewBox="0 0 33 30.247">
  <g id="Grupo_84" data-name="Grupo 84" transform="translate(-2.375 -8.5)">
    <circle id="Elipse_14" data-name="Elipse 14" cx="5.062" cy="5.062" r="5.062" transform="translate(5.115 8.5)"/>
    <path id="Trazado_355" data-name="Trazado 355" d="M16.661,42.686A5.353,5.353,0,0,0,12.072,40.1H8.284A5.392,5.392,0,0,0,2.93,44.835l-.546,4.37a1.12,1.12,0,0,0,.874,1.238,32.423,32.423,0,0,0,6.884.728c1.2,0,2.4-.073,3.569-.182l.473-3.788A7.165,7.165,0,0,1,16.661,42.686Z" transform="translate(0 -20.091)"/>
    <path id="Trazado_356" data-name="Trazado 356" d="M50.322,51.316l.692-.036.546-.473a3.42,3.42,0,0,1,.656-.437A5.346,5.346,0,0,0,47.3,47.2H43.584a5.392,5.392,0,0,0-5.354,4.735l-.546,4.37a1.12,1.12,0,0,0,.874,1.238,32.423,32.423,0,0,0,6.884.728h.8A3.189,3.189,0,0,1,46.9,55.5l.473-.51.073-.728A3.105,3.105,0,0,1,50.322,51.316Z" transform="translate(-23.49 -24.605)"/>
    <circle id="Elipse_15" data-name="Elipse 15" cx="5.062" cy="5.062" r="5.062" transform="translate(16.897 11.049)"/>
    <path id="Trazado_357" data-name="Trazado 357" d="M76.7,64.212l-.473-.546a1.561,1.561,0,0,1-.364-.874l-.073-.728a1.558,1.558,0,0,0-1.42-1.42l-.728-.073a1.561,1.561,0,0,1-.874-.364l-.546-.473a1.5,1.5,0,0,0-2,0l-.546.473a1.561,1.561,0,0,1-.874.364l-.728.073a1.558,1.558,0,0,0-1.42,1.42l-.073.728a1.561,1.561,0,0,1-.364.874l-.473.546a1.5,1.5,0,0,0,0,2l.473.546a1.561,1.561,0,0,1,.364.874l.073.728a1.558,1.558,0,0,0,1.42,1.42l.728.073a1.561,1.561,0,0,1,.874.364l.546.473a1.5,1.5,0,0,0,2,0l.546-.473a1.561,1.561,0,0,1,.874-.364l.728-.073a1.558,1.558,0,0,0,1.42-1.42l.073-.728a1.561,1.561,0,0,1,.364-.874l.473-.546A1.59,1.59,0,0,0,76.7,64.212ZM71.633,67.6v.619a.1.1,0,0,1-.109.109h-.583a.1.1,0,0,1-.109-.109V67.6A1.21,1.21,0,0,1,69.7,66.507a.1.1,0,0,1,.109-.109h.583c.036,0,.109.036.109.073a.427.427,0,0,0,.4.328h.51a.627.627,0,0,0,.619-.51.6.6,0,0,0-.583-.656h-.364a1.458,1.458,0,0,1-1.457-1.275,1.413,1.413,0,0,1,1.2-1.53v-.583a.1.1,0,0,1,.109-.109h.583a.1.1,0,0,1,.109.109v.583a1.21,1.21,0,0,1,1.129,1.093.1.1,0,0,1-.109.109H72.07c-.036,0-.109-.036-.109-.073a.427.427,0,0,0-.4-.328h-.51a.627.627,0,0,0-.619.51.6.6,0,0,0,.583.656h.437a1.359,1.359,0,0,1,1.384,1.53A1.47,1.47,0,0,1,71.633,67.6Z" transform="translate(-41.675 -32.33)"/>
  </g>
</svg>
