<?xml version="1.0" encoding="utf-8"?>
<!-- Generator: Adobe Illustrator 24.1.0, SVG Export Plug-In . SVG Version: 6.00 Build 0)  -->
<svg version="1.1" id="Capa_1" xmlns="http://www.w3.org/2000/svg" xmlns:xlink="http://www.w3.org/1999/xlink" x="0px" y="0px"
	 viewBox="0 0 33 28.8" style="enable-background:new 0 0 33 28.8;" xml:space="preserve" width="33" height="28.8">
	<style type="text/css">
		.st0{fill-rule:evenodd;clip-rule:evenodd;fill:#576271;}
	</style>
	<circle class="st0" cx="7.4" cy="4.8" r="4.8"/>
	<path class="st0" d="M13.6,13.4c-0.9-1.5-2.5-2.5-4.4-2.5H5.6c-2.6,0-4.8,1.9-5.1,4.5L0,19.6c-0.1,0.6,0.3,1,0.8,1.2c2.1,0.5,4.3,0.7,6.6,0.7
		c1.1,0,2.3-0.1,3.4-0.2l0.5-3.6C11.5,16,12.4,14.5,13.6,13.4z"/>
	<path class="st0" d="M24.3,17.4l0.7,0l0.5-0.5c0.2-0.2,0.4-0.3,0.6-0.4c-0.8-1.8-2.6-3-4.7-3h-3.5c-2.6,0-4.8,1.9-5.1,4.5l-0.5,4.2
		c-0.1,0.6,0.3,1,0.8,1.2c2.1,0.5,4.3,0.7,6.6,0.7c0.2,0,0.5,0,0.8,0c-0.2-0.9,0-1.9,0.6-2.6l0.5-0.5l0.1-0.7
		C21.7,18.6,22.8,17.5,24.3,17.4z"/>
	<circle class="st0" cx="19.6" cy="7.3" r="4.8"/>
	<path class="st0" d="M32.7,22.3l-0.5-0.5c-0.2-0.2-0.3-0.5-0.3-0.8l-0.1-0.7c-0.1-0.7-0.6-1.3-1.4-1.4l-0.7-0.1c-0.3,0-0.6-0.1-0.8-0.3
		L28.4,18c-0.6-0.5-1.4-0.5-1.9,0L26,18.5c-0.2,0.2-0.5,0.3-0.8,0.3l-0.7,0.1c-0.7,0.1-1.3,0.6-1.4,1.4L23,20.9
		c0,0.3-0.1,0.6-0.3,0.8l-0.5,0.5c-0.5,0.6-0.5,1.4,0,1.9l0.5,0.5c0.2,0.2,0.3,0.5,0.3,0.8l0.1,0.7c0.1,0.7,0.6,1.3,1.4,1.4
		l0.7,0.1c0.3,0,0.6,0.1,0.8,0.3l0.5,0.5c0.6,0.5,1.4,0.5,1.9,0l0.5-0.5c0.2-0.2,0.5-0.3,0.8-0.3l0.7-0.1c0.7-0.1,1.3-0.6,1.4-1.4
		l0.1-0.7c0-0.3,0.1-0.6,0.3-0.8l0.5-0.5C33.1,23.6,33.1,22.8,32.7,22.3z M27.8,25.5v0.6c0,0.1,0,0.1-0.1,0.1h-0.6
		c-0.1,0-0.1,0-0.1-0.1v-0.6c-0.6,0-1-0.5-1.1-1c0-0.1,0-0.1,0.1-0.1h0.6c0,0,0.1,0,0.1,0.1c0,0.2,0.2,0.3,0.4,0.3h0.5
		c0.3,0,0.6-0.2,0.6-0.5c0-0.3-0.2-0.6-0.6-0.6h-0.3c-0.7,0-1.3-0.5-1.4-1.2c-0.1-0.7,0.5-1.4,1.1-1.5v-0.6c0-0.1,0-0.1,0.1-0.1
		h0.6c0.1,0,0.1,0,0.1,0.1V21c0.6,0,1,0.5,1.1,1c0,0.1,0,0.1-0.1,0.1h-0.6c0,0-0.1,0-0.1-0.1c0-0.2-0.2-0.3-0.4-0.3h-0.5
		c-0.3,0-0.6,0.2-0.6,0.5c0,0.3,0.2,0.6,0.6,0.6h0.4c0.8,0,1.4,0.7,1.3,1.5C28.9,24.9,28.4,25.4,27.8,25.5z"/>
</svg>
