<?xml version="1.0" encoding="UTF-8"?>
<svg
    width="33px"
    height="33px"
    data-name="Layer 2"
    viewBox="0 0 33 33"
    xmlns="http://www.w3.org/2000/svg">
    <style type="text/css">
		.st0{fill-rule:evenodd;clip-rule:evenodd;fill:#576271;}
	</style>
    <path class="st0"
        d="m16 2a14.001 14.001 0 0 0 -10 23.8c0.33 0.33 0.67 0.64 1.03 0.94a10.427 10.427 0 0 0 1.13 0.85 13.957 13.957 0 0 0 15.68 0 10.427 10.427 0 0 0 1.1299 -0.85c0.36005-0.3 0.7-0.61 1.03-0.94a14.001 14.001 0 0 0 -10 -23.8zm9.6 21.2a10.021 10.021 0 0 0 -6.15 -6.58 5 5 0 1 0 -6.9 0 10.021 10.021 0 0 0 -6.15 6.58 12 12 0 1 1 19.2 0z"/>
</svg>
