<svg xmlns="http://www.w3.org/2000/svg" width="33" height="33" viewBox="0 0 33 33">
  <g id="Grupo_85" data-name="Grupo 85" transform="translate(0 -0.007)">
    <g id="Grupo_86" data-name="Grupo 86">
      <path id="Trazado_359" data-name="Trazado 359" d="M0,6.391c.057-.29.107-.58.173-.87A7.147,7.147,0,0,1,6.984.022C7.921,0,8.858,0,9.794.022a2.82,2.82,0,0,1,.07,5.639c-.832.03-1.665,0-2.5.01A1.5,1.5,0,0,0,5.7,7.337V25.644a1.507,1.507,0,0,0,1.684,1.683c.867,0,1.736-.026,2.6.022a2.812,2.812,0,0,1,2.306,4.124,2.634,2.634,0,0,1-2.26,1.5,28.191,28.191,0,0,1-3.741-.048A7.112,7.112,0,0,1,.073,26.928C.058,26.814.025,26.706,0,26.6Z"/>
      <path id="Trazado_360" data-name="Trazado 360" d="M145.105,92.948c-.136-.147-.215-.237-.3-.321-1.2-1.2-2.416-2.393-3.613-3.6a2.743,2.743,0,0,1-.3-3.545,2.864,2.864,0,0,1,3.568-.947,3.223,3.223,0,0,1,.835.6q4.361,4.289,8.7,8.6a2.749,2.749,0,0,1-.006,4.062q-4.249,4.205-8.511,8.4a2.87,2.87,0,0,1-4.1.038,2.767,2.767,0,0,1,.074-4.014q1.672-1.669,3.362-3.314a2.129,2.129,0,0,1,.281-.2l-.053-.124H133a2.9,2.9,0,0,1-2.868-2.14,2.811,2.811,0,0,1,2.8-3.481c2.509-.012,5.02,0,7.53,0h4.64Z" transform="translate(-121.888 -78.769)"/>
    </g>
  </g>
</svg>
