<svg xmlns="http://www.w3.org/2000/svg" width="30" height="37.837" viewBox="0 0 30 37.837">
  <g id="Grupo_82" data-name="Grupo 82" transform="translate(-8211 -236)">
    <g id="order" transform="translate(8211 236)">
      <g id="Grupo_68" data-name="Grupo 68" transform="translate(0 7.464)">
        <g id="Grupo_67" data-name="Grupo 67">
          <path id="Trazado_346" data-name="Trazado 346" d="M83.005,124.742l-1.69-21.291a2.66,2.66,0,0,0-2.641-2.446H75.337v4.945a1.108,1.108,0,0,1-2.216,0v-4.945H62.926v4.945a1.108,1.108,0,0,1-2.216,0v-4.945H57.372a2.66,2.66,0,0,0-2.641,2.443l-1.69,21.3a6.161,6.161,0,0,0,6.143,6.632h17.68a6.161,6.161,0,0,0,6.142-6.635ZM73.016,113.9l-5.731,5.731a1.108,1.108,0,0,1-1.568,0l-2.686-2.686a1.108,1.108,0,0,1,1.567-1.567l1.9,1.9,4.948-4.948a1.108,1.108,0,1,1,1.567,1.568Z" transform="translate(-53.023 -101.005)"/>
        </g>
      </g>
      <g id="Grupo_70" data-name="Grupo 70" transform="translate(7.687)">
        <g id="Grupo_69" data-name="Grupo 69">
          <path id="Trazado_347" data-name="Trazado 347" d="M164.353,0a7.322,7.322,0,0,0-7.314,7.314v.15h2.216v-.15a5.1,5.1,0,1,1,10.195,0v.15h2.216v-.15A7.322,7.322,0,0,0,164.353,0Z" transform="translate(-157.039)"/>
        </g>
      </g>
    </g>
  </g>
</svg>
