<svg xmlns="http://www.w3.org/2000/svg" width="33" height="32.994" viewBox="0 0 33 32.994">
  <path id="shelf" d="M7.734,29.063v2H13.6v-2ZM15.724,18.3V13.468a.969.969,0,0,0-.967-.967H13.147v1.45a.967.967,0,1,1-1.933,0V12.5H9.6a.969.969,0,0,0-.967.967V18.3a.968.968,0,0,0,.967.967h5.154a.968.968,0,0,0,.967-.967ZM2.9,19.268V.967A.967.967,0,0,1,3.867,0h7.024V2.255a.967.967,0,1,0,1.933,0V0h7.024a.967.967,0,0,1,.967.967V5.735H16.691a.967.967,0,0,0-.967.967v3.867H7.67a.967.967,0,0,0-.967.967v7.733Zm25.518-11.6h-3.93c0,.516,0,1.2,0,1.74a.967.967,0,1,1-1.933,0c0-.574.007-1.164,0-1.74h-3.93a.968.968,0,0,0-.967.967V18.3a.968.968,0,0,0,.967.967h9.795a.968.968,0,0,0,.967-.967V8.635a.967.967,0,0,0-.967-.967Zm3.48,14.5V24.23a.969.969,0,0,1-.967.967H21.461a.969.969,0,0,1-.967-.967V22.168a.968.968,0,0,1,.967-.967H25.23v1.353a.967.967,0,0,0,1.933,0V21.2h3.769a.969.969,0,0,1,.967.967ZM1.3,24.23V22.168a.968.968,0,0,1,.967-.967H17.595a.968.968,0,0,1,.967.967V24.23a.969.969,0,0,1-.967.967H2.262A.968.968,0,0,1,1.3,24.23Zm18.1,4.833v2h5.864v-2Zm11.664,0v2h.973a.967.967,0,0,1,0,1.933H.967a.967.967,0,0,1,0-1.933h.967v-2H.967a.967.967,0,0,1,0-1.933H32.028a.967.967,0,0,1,0,1.933Zm0,0" transform="translate(-0.001)" fill-rule="evenodd"/>
</svg>
