<?xml version="1.0" encoding="utf-8"?>
<!-- Generator: Adobe Illustrator 24.1.0, SVG Export Plug-In . SVG Version: 6.00 Build 0)  -->
<svg version="1.1" id="Capa_1" xmlns="http://www.w3.org/2000/svg" xmlns:xlink="http://www.w3.org/1999/xlink" x="0px" y="0px"
	 viewBox="0 0 33 33" style="enable-background:new 0 0 33 33;" xml:space="preserve" width="33" height="33">
	<style type="text/css">
		.st0{fill-rule:evenodd;clip-rule:evenodd;fill:#576271;}
	</style>
	<path class="st0" d="M7.7,29.1v2h5.9v-2H7.7z M15.7,18.3v-4.8c0-0.5-0.4-1-1-1h-1.6v1.5c0,0.5-0.4,1-1,1c-0.5,0-1-0.4-1-1v-1.5H9.6
		c-0.5,0-1,0.4-1,1v4.8c0,0.5,0.4,1,1,1h5.2C15.3,19.3,15.7,18.8,15.7,18.3z M2.9,19.3V1c0-0.5,0.4-1,1-1h7v2.3c0,0.5,0.4,1,1,1
		c0.5,0,1-0.4,1-1V0h7c0.5,0,1,0.4,1,1v4.8h-4.1c-0.5,0-1,0.4-1,1v3.9H7.7c-0.5,0-1,0.4-1,1v7.7L2.9,19.3z M28.4,7.7h-3.9
		c0,0.5,0,1.2,0,1.7c0,0.5-0.4,1-1,1s-1-0.4-1-1c0-0.6,0-1.2,0-1.7h-3.9c-0.5,0-1,0.4-1,1v9.7c0,0.5,0.4,1,1,1h9.8c0.5,0,1-0.4,1-1
		V8.6C29.4,8.1,28.9,7.7,28.4,7.7z M31.9,22.2v2.1c0,0.5-0.4,1-1,1h-9.5c-0.5,0-1-0.4-1-1v-2.1c0-0.5,0.4-1,1-1h3.8v1.4
		c0,0.5,0.4,1,1,1c0.5,0,1-0.4,1-1v-1.4h3.8C31.5,21.2,31.9,21.6,31.9,22.2L31.9,22.2z M1.3,24.2v-2.1c0-0.5,0.4-1,1-1h15.3
		c0.5,0,1,0.4,1,1v2.1c0,0.5-0.4,1-1,1H2.3C1.7,25.2,1.3,24.8,1.3,24.2z M19.4,29.1v2h5.9v-2H19.4z M31.1,29.1v2h1c0.5,0,1,0.4,1,1
		c0,0.5-0.4,1-1,1H1c-0.5,0-1-0.4-1-1c0-0.5,0.4-1,1-1h1v-2H1c-0.5,0-1-0.4-1-1c0-0.5,0.4-1,1-1H32c0.5,0,1,0.4,1,1c0,0.5-0.4,1-1,1
		H31.1z"/>
</svg>
