<?xml version="1.0" encoding="utf-8"?>
<!-- Generator: Adobe Illustrator 24.1.0, SVG Export Plug-In . SVG Version: 6.00 Build 0)  -->
<svg version="1.1" id="Capa_1" xmlns="http://www.w3.org/2000/svg" xmlns:xlink="http://www.w3.org/1999/xlink" x="0px" y="0px"
	 viewBox="0 0 33 45.7" style="enable-background:new 0 0 33 45.7;" xml:space="preserve" width="33" height="34.95">
	<style type="text/css">
		.st0{fill-rule:evenodd;clip-rule:evenodd;fill:#576271;}
	</style>
	<path class="st0" d="M16.5,0L16.5,0C7.4,0,0,7.4,0,16.5c0,3.2,1,6.2,2.4,8.7l10.8,18.6c0.7,1.2,2,1.8,3.3,1.8c1.3,0,2.6-0.6,3.3-1.8l10.8-18.6
		c1.4-2.5,2.4-5.5,2.4-8.7C33,7.4,25.6,0,16.5,0z M16.5,21.4c-3.3,0-6-2.7-6-6s2.7-6,6-6s6,2.7,6,6C22.5,18.7,19.8,21.4,16.5,21.4z"
		/>
</svg>
