<svg xmlns="http://www.w3.org/2000/svg" width="33" height="33" viewBox="0 0 33 33">
  <path id="user" d="M33,16.5A16.5,16.5,0,1,0,5.356,28.655l-.016.014.535.451c.035.029.073.053.107.082.284.236.579.46.879.676.1.07.194.14.293.209q.481.331.985.629c.073.043.147.085.221.127.368.209.743.407,1.128.588l.085.038a16.351,16.351,0,0,0,3.991,1.263l.11.02c.434.075.874.135,1.318.175l.163.013c.443.037.89.06,1.344.06s.893-.023,1.333-.059L18,32.929q.662-.06,1.307-.172l.112-.02A16.351,16.351,0,0,0,23.354,31.5l.137-.062q.555-.261,1.087-.562.132-.075.263-.152c.323-.19.64-.389.949-.6.111-.076.22-.155.329-.235.263-.19.522-.385.773-.59.056-.045.116-.084.17-.13l.549-.458L27.6,28.7A16.457,16.457,0,0,0,33,16.5Zm-31.8,0A15.3,15.3,0,1,1,26.647,27.938a4.5,4.5,0,0,0-.536-.322l-5.08-2.54a1.33,1.33,0,0,1-.739-1.2V22.106c.118-.145.242-.31.37-.49a12.227,12.227,0,0,0,1.57-3.074,2.178,2.178,0,0,0,1.251-1.973V14.441a2.183,2.183,0,0,0-.532-1.421v-2.8A4.839,4.839,0,0,0,21.82,6.7c-1.106-1.262-2.9-1.9-5.32-1.9s-4.214.639-5.32,1.9a4.84,4.84,0,0,0-1.13,3.518v2.8a2.186,2.186,0,0,0-.532,1.421v2.127a2.183,2.183,0,0,0,.8,1.693,11.274,11.274,0,0,0,1.856,3.833V23.83A1.338,1.338,0,0,1,11.48,25L6.736,27.593a4.336,4.336,0,0,0-.451.286A15.263,15.263,0,0,1,1.2,16.5Z"/>
</svg>
