<svg xmlns="http://www.w3.org/2000/svg" viewBox="0 0 736.52 146"><defs><style>.cls-1{fill:#d4af37}</style></defs><title>poseidonlogo_1</title><g id="Capa_2" data-name="Capa 2"><g id="Capa_1-2" data-name="Capa 1"><path d="M179.75,125.82a2,2,0,0,1-2-2V74.39c0-6.88,2.95-9.83,9.83-9.83h16.82c5.13,0,8.51-.87,8.51-14.19,0-9.4-2.4-13.22-8.51-13.22h-3v16.6a1.88,1.88,0,0,1-1.86,2,2,2,0,0,1-2-2V35.19a2,2,0,0,1,2-2h4.81c12.44,0,12.44,12.89,12.44,17.15,0,13.32-3.38,18.12-12.44,18.12H187.61c-4.69,0-5.9,1.2-5.9,5.9v47.5h15.95V85a2,2,0,0,1,2-2h5.9c4.91,0,13,0,19-4.58,5.79-4.7,9.5-14.85,9.5-26.43,0-9.06-2-16.59-5.79-22.38-5.79-9.06-14.52-9.06-23.8-9.06H181.71v35.7a2,2,0,1,1-3.93,0V18.59a2,2,0,0,1,2-2h24.68c9.39,0,20.2,0,27.08,10.81C235.76,33.88,238,42.18,238,52c0,12.89-4.15,23.92-10.92,29.48-7.1,5.46-16.49,5.57-21.51,5.57h-4v36.8a1.88,1.88,0,0,1-1.86,2Z" class="cls-1"/><path d="M199.62,127.32H179.75a3.48,3.48,0,0,1-3.47-3.47V74.39c0-7.73,3.6-11.33,11.33-11.33h16.82c4.07,0,7,0,7-12.69,0-9.76-2.68-11.72-7-11.72H203v15.1a3.39,3.39,0,0,1-3.36,3.47,3.47,3.47,0,0,1-3.46-3.47V35.19a3.47,3.47,0,0,1,3.46-3.47h4.81c9.25,0,13.94,6.27,13.94,18.65C218.37,62.15,216,70,204.43,70H187.61c-3.86,0-4.4.54-4.4,4.4v46h12.95V85a3.47,3.47,0,0,1,3.46-3.47h5.9c4.67,0,12.49,0,18.09-4.28,5.4-4.38,8.91-14.29,8.91-25.23,0-8.74-1.87-16-5.54-21.55-5.36-8.39-13.33-8.39-22.55-8.39H183.21v34.2a3.47,3.47,0,1,1-6.93,0V18.59a3.48,3.48,0,0,1,3.47-3.47h24.68c9.36,0,21,0,28.34,11.51,4.43,6.69,6.68,15.24,6.68,25.37,0,13.28-4.29,24.74-11.47,30.64-7.68,5.91-17.66,5.91-22.46,5.91H203v35.3A3.39,3.39,0,0,1,199.62,127.32Zm-12-61.26c-6.07,0-8.33,2.26-8.33,8.33v49.46a.46.46,0,0,0,.47.47h19.87c.33,0,.36-.36.36-.47V85.55h5.54c4.47,0,13.76,0,20.59-5.25C232.57,75,236.45,64.4,236.45,52c0-9.53-2.09-17.52-6.2-23.74-6.45-10.14-16.74-10.14-25.82-10.14H179.75a.46.46,0,0,0-.47.47V56.26a.47.47,0,1,0,.93,0V19.06h24.22c9.26,0,18.84,0,25.06,9.75,4,6.05,6,13.86,6,23.19,0,12-3.85,22.56-10.06,27.59-6.44,4.92-14.89,4.92-19.94,4.92h-5.9a.45.45,0,0,0-.46.47v38.41H180.21v-49c0-5.53,1.87-7.4,7.4-7.4h16.82c7.1,0,10.94-2.65,10.94-16.62,0-6.72-1.13-15.65-10.94-15.65h-4.81a.45.45,0,0,0-.46.47V53.75a.45.45,0,0,0,.46.47c.33,0,.36-.36.36-.47V35.65h4.45c8.82,0,10,7.44,10,14.72,0,13.26-3.37,15.69-10,15.69Z" class="cls-1"/><path d="M286.21,127.45c-13.43-.11-15.83-10.34-16.82-14.73l-.11-.79c-1.52-6.41-1.31-22.49-1.2-33.17V72.68c0-14.51.33-25.41,2.19-30.7s4.8-8.1,9-8.1c5,0,7.75,2.36,9.61,8.21,2.07,6.64,2,21.37,2,28.46,0,3.37.11,20.58-1.09,27.66-.65,3.94-1.85,8.21-5.57,10.12a1.93,1.93,0,0,1-2.62-.9,2,2,0,0,1,.88-2.69c1.74-.9,2.73-2.93,3.38-7.2,1.09-7,1.2-25,1.2-27,0-6.3,0-21.15-1.85-27.22-1.42-4.61-3.06-5.4-5.9-5.4-1.64,0-3.6.56-5.24,5.29-1.75,5.06-2,17.2-2,29.46,0,1.69-.11,3.71-.11,6.08-.1,10.45-.21,26.43,1.21,32.27l.21.79c1.1,4.61,2.62,11.59,13.11,11.59h.22c16.05-.12,21.72-27.56,21.72-51.06C308.37,36,299.31,19,279.66,19c-19.88,0-29.16,16.3-29.16,51.39,0,19.23,2.62,33.18,8,42.63a33.25,33.25,0,0,0,2.19,3.15,2.14,2.14,0,0,1-.22,2.81,1.88,1.88,0,0,1-2.73-.23,23.71,23.71,0,0,1-2.51-3.59c-5.9-10.24-8.63-24.41-8.63-44.77,0-37.34,10.81-55.44,33.09-55.44,29.26,0,32.75,32.73,32.75,57.36,0,26.65-6.87,55.1-26,55.1Z" class="cls-1"/><path d="M286.43,129h-.23c-14.73-.12-17.3-11.58-18.27-15.9l0-.12-.1-.72c-1.51-6.43-1.35-21.46-1.24-32.45V72.68c0-15.27.38-25.82,2.27-31.2,2.12-6,5.61-9.1,10.37-9.1,5.68,0,9,2.77,11,9.26s2,20.43,2,27.89v1.81c0,5,0,20.36-1.12,27.12-.67,4-2,9-6.36,11.21a3.66,3.66,0,0,1-2.84.13,3.24,3.24,0,0,1-1.84-1.77,3.55,3.55,0,0,1,1.62-4.66c.83-.42,1.83-1.51,2.53-6.06,1.13-7.24,1.18-26.57,1.18-26.76,0-6.26,0-20.92-1.79-26.78-1.27-4.14-2.46-4.34-4.46-4.34-.82,0-2.34,0-3.82,4.28-1.66,4.79-1.89,16.76-1.89,29,0,.79,0,1.64,0,2.57s-.07,2.24-.07,3.51c-.08,8.46-.27,26,1.16,31.92l.26.95c1.08,4.58,2.43,10.28,11.61,10.28h.22c14-.1,20.22-25,20.22-49.56,0-35.35-8.64-51.81-27.21-51.81C260.79,20.54,252,36.39,252,70.43c0,18.91,2.53,32.59,7.74,41.83.1.14.23.33.37.57a20.5,20.5,0,0,0,1.71,2.42,3.64,3.64,0,0,1-.39,4.89,3.43,3.43,0,0,1-2.66.84,3.19,3.19,0,0,1-2.24-1.26,25.12,25.12,0,0,1-2.59-3.7c-6.06-10.53-8.87-25-8.87-45.59,0-38.32,11.31-56.94,34.59-56.94,30.7,0,34.25,33.59,34.25,58.86C313.91,99.71,306.69,129,286.43,129Zm-.22-3h.22c18.05,0,24.48-27.69,24.48-53.6,0-24-3.24-55.86-31.25-55.86-21.26,0-31.59,17.64-31.59,53.94,0,20,2.68,34,8.43,44a22.49,22.49,0,0,0,2.36,3.38l.06.08a.23.23,0,0,0,.17.09.5.5,0,0,0,.36-.11.65.65,0,0,0,.05-.72,25.49,25.49,0,0,1-1.93-2.75c-.13-.21-.23-.37-.31-.48l-.09-.14c-5.5-9.7-8.17-23.89-8.17-43.37,0-36.09,9.74-52.89,30.66-52.89,20.61,0,30.21,17.41,30.21,54.81,0,25.33-6.1,52.44-23.21,52.56h-.23c-11.55,0-13.42-7.88-14.53-12.58l-.24-.9c-1.35-5.54-1.4-19-1.26-32.69,0-1.28,0-2.47.07-3.57,0-.9,0-1.73,0-2.49,0-14.42.35-25,2.05-30,1.51-4.36,3.56-6.3,6.66-6.3,3.94,0,5.86,1.69,7.33,6.46,1.92,6.29,1.92,21.26,1.92,27.66,0,.19-.05,19.77-1.22,27.22-.72,4.74-1.93,7.14-4.18,8.3a.59.59,0,0,0-.18.77.27.27,0,0,0,.17.16.59.59,0,0,0,.45,0c3.09-1.59,4.12-5.45,4.71-9,.74-4.33,1.1-13.29,1.08-26.63V69.53c0-7.3,0-20.88-1.89-27-1.66-5.22-3.87-7.16-8.18-7.16-3.4,0-5.86,2.32-7.54,7.1-1.74,5-2.1,15.66-2.1,30.2V79.8c-.1,10.25-.27,25.76,1.17,31.79l0,.14.1.72C271.85,116.84,273.93,125.85,286.21,126Z" class="cls-1"/><path d="M322.57,97.86l-.11-.43a2,2,0,0,1,1.2-2.3L340,88.58a2.14,2.14,0,0,1,1.64.11,1.75,1.75,0,0,1,1,1.31c1.31,6,2.84,11.47,8,13a7.72,7.72,0,0,0,7.1-1.1A8.72,8.72,0,0,0,361,94.7c0-5.68-3.27-8.08-6.88-9.83a2,2,0,0,1,1.75-3.5c4.26,2.08,9.06,5.46,9.06,13.33A12.84,12.84,0,0,1,360,105.07a11.47,11.47,0,0,1-10.48,1.75c-6.77-2-9.07-8.63-10.27-13.65l-12.44,5c2.62,9.39,7.31,23.7,26.42,23.7a35.53,35.53,0,0,0,14.52-2.84c8.08-3.93,13.32-13.43,13-23.7-.33-9.17-5.14-16.49-12.67-19.54a82,82,0,0,0-13-3.72c-12.89-2.83-26.32-5.78-29.27-22.16a27,27,0,0,1,5.68-22.71,30.35,30.35,0,0,1,23.15-10.6c14.19,0,24.35,8.74,28.72,24.57a2.06,2.06,0,0,1-1.09,2.3L367,50.69a2.12,2.12,0,0,1-1.64,0,1.87,1.87,0,0,1-1.09-1.31c-.88-3.82-2.4-8.41-6.23-9.93-3.49-1.42-7.09.21-8.84,3.71-2,4-.76,8.52,3.28,11.35a2,2,0,0,1,.54,2.73,2.06,2.06,0,0,1-2.84.44c-5.68-3.93-7.42-10.48-4.58-16.27a10.82,10.82,0,0,1,14-5.57c4.59,1.86,6.66,6.12,7.86,10.27l11.69-5.46c-2.95-9.5-9.5-20.09-24.46-20.09a26.26,26.26,0,0,0-20.09,9.17,22.88,22.88,0,0,0-4.81,19.43c2.51,13.76,14.09,16.38,26.21,19.11a82.71,82.71,0,0,1,13.65,3.82c9.06,3.61,14.74,12.23,15.07,23.15.43,11.8-5.68,22.82-15.18,27.41-5.68,2.73-12.67,3.17-16.27,3.17C330.21,125.82,325.19,107.58,322.57,97.86Z" class="cls-1"/><path d="M353.25,127.32c-24.29,0-29.59-19.63-32.13-29.07l-.12-.46a3.51,3.51,0,0,1,2.13-4.06l16.35-6.54a3.64,3.64,0,0,1,2.75.11,3.22,3.22,0,0,1,1.9,2.41c1.25,5.71,2.63,10.57,6.93,11.85a6.3,6.3,0,0,0,5.75-.84,7.26,7.26,0,0,0,2.69-6c0-4.63-2.31-6.68-6-8.48a3.2,3.2,0,0,1-1.75-2,3.63,3.63,0,0,1,.16-2.57,3.47,3.47,0,0,1,4.6-1.64c4.3,2.1,9.95,5.87,9.95,14.7a14.43,14.43,0,0,1-5.51,11.57,13,13,0,0,1-11.79,2c-6.73-2-9.48-8-10.88-13.06l-9.62,3.88c2.31,8.1,6.92,21.31,24.62,21.31a34,34,0,0,0,13.88-2.7c7.56-3.68,12.45-12.64,12.14-22.29-.31-8.54-4.69-15.35-11.73-18.2a80,80,0,0,0-12.76-3.64c-12.81-2.82-27.29-6-30.41-23.37a28.43,28.43,0,0,1,6-23.93,32,32,0,0,1,24.31-11.14c14.88,0,25.6,9.12,30.16,25.67a3.56,3.56,0,0,1-1.86,4l-15.32,7.22a3.68,3.68,0,0,1-2.84,0,3.39,3.39,0,0,1-2-2.41c-.72-3.15-2.07-7.54-5.31-8.84-2.71-1.1-5.5.1-6.95,3-1.67,3.44-.6,7.07,2.8,9.46a3.71,3.71,0,0,1,1.45,2.18,3.2,3.2,0,0,1-.57,2.67,3.58,3.58,0,0,1-4.94.74c-6.2-4.29-8.24-11.59-5-18.13a12.34,12.34,0,0,1,15.89-6.3c4.78,1.94,7,6.07,8.21,9.57l8.93-4.17c-4-11.81-11.64-17.79-22.62-17.79a24.75,24.75,0,0,0-18.94,8.63,21.47,21.47,0,0,0-4.48,18.2c2.34,12.8,12.87,15.17,25.06,17.92a82.59,82.59,0,0,1,13.89,3.9c9.66,3.84,15.65,13,16,24.49.45,12.37-6,24-16,28.8C364.17,126.89,357,127.32,353.25,127.32ZM324,97.49c2.53,9.38,7.24,26.83,29.23,26.83,2.81,0,9.95-.3,15.62-3,9-4.34,14.74-14.79,14.33-26-.31-10.27-5.59-18.42-14.13-21.81a80.7,80.7,0,0,0-13.4-3.75C343.53,67,331,64.18,328.3,49.43a24.38,24.38,0,0,1,5.12-20.66,27.81,27.81,0,0,1,21.25-9.71c12.64,0,21.6,7.31,25.89,21.14l.39,1.25-14.46,6.76L366,46.52c-1.44-5-3.66-7.94-7-9.29A9.38,9.38,0,0,0,347,42.06c-2.54,5.17-.89,10.94,4.09,14.39a.58.58,0,0,0,.78-.11.22.22,0,0,0,0-.22.84.84,0,0,0-.28-.41c-4.59-3.21-6.06-8.41-3.73-13.21,2.16-4.32,6.58-6.14,10.76-4.44,4.54,1.81,6.24,7.14,7.12,11a.36.36,0,0,0,.19.25.59.59,0,0,0,.52,0l15.21-7.17a.55.55,0,0,0,.27-.57c-4.16-15.1-13.85-23.44-27.26-23.44a28.87,28.87,0,0,0-22,10.06,25.49,25.49,0,0,0-5.35,21.48c2.77,15.39,15.06,18.09,28.08,21a83.63,83.63,0,0,1,13.26,3.8c8.17,3.31,13.26,11.12,13.6,20.88.35,10.82-5.21,20.9-13.83,25.1a37.14,37.14,0,0,1-15.18,3c-20.95,0-25.62-16.75-27.87-24.8L325,97.3l15.31-6.18.4,1.7c1.18,4.94,3.3,10.84,9.23,12.56a9.94,9.94,0,0,0,9.14-1.49,11.45,11.45,0,0,0,4.33-9.19c0-7-4.15-10-8.22-12-.18-.08-.51,0-.59.14s-.06.56.11.64c3.87,1.87,7.77,4.65,7.77,11.2a10.15,10.15,0,0,1-3.87,8.4,9.22,9.22,0,0,1-8.42,1.34c-5.87-1.75-7.61-7.68-9-14.12a.5.5,0,0,0-.1-.25,1,1,0,0,0-.49-.1l-16.38,6.56a.48.48,0,0,0-.3.57Z" class="cls-1"/><path d="M400.17,125.82a2,2,0,0,1-2-2V89A12,12,0,0,1,410,77.12h32.32V63.47H420.48a2,2,0,0,1-2-2V37a2,2,0,0,1,2-2h29V20.56H402.14V70.78a2,2,0,0,1-3.93,0V18.59a2,2,0,0,1,2-2h51.32a2,2,0,0,1,2,2V37a2,2,0,0,1-2,2h-29V59.54h21.73a2,2,0,0,1,2,2V79.08a1.87,1.87,0,0,1-2,1.86H410.44a8.27,8.27,0,0,0-8.3,8.19v32.76h47.39V107.36h-29a2,2,0,0,1-2-2V91.86a2,2,0,1,1,3.93,0v11.57h29a2,2,0,0,1,2,2v18.45a2,2,0,0,1-2,2Z" class="cls-1"/><path d="M451.49,127.32H400.17a3.47,3.47,0,0,1-3.46-3.47V89A13.49,13.49,0,0,1,410,75.62h30.87V65H420.48A3.47,3.47,0,0,1,417,61.5V37a3.46,3.46,0,0,1,3.46-3.46H448V22.06H403.64V70.78a3.47,3.47,0,0,1-6.93,0V18.59a3.47,3.47,0,0,1,3.46-3.47h51.32A3.48,3.48,0,0,1,455,18.59V37a3.48,3.48,0,0,1-3.47,3.47H424V58h20.23a3.46,3.46,0,0,1,3.46,3.46V79.08a3.38,3.38,0,0,1-3.46,3.36H410.44a6.75,6.75,0,0,0-6.8,6.69v31.26H448V108.86H420.48A3.46,3.46,0,0,1,417,105.4V91.86a3.47,3.47,0,1,1,6.93,0v10.07h27.54A3.48,3.48,0,0,1,455,105.4v18.45A3.48,3.48,0,0,1,451.49,127.32ZM410,78.62A10.49,10.49,0,0,0,399.71,89v34.83a.46.46,0,0,0,.46.47h51.32a.46.46,0,0,0,.47-.47V105.4a.46.46,0,0,0-.47-.47H421V91.86a.47.47,0,1,0-.93,0V105.4a.45.45,0,0,0,.46.46H451v17.53H400.64V89.13a9.75,9.75,0,0,1,9.8-9.69h33.74c.11,0,.46,0,.46-.36V61.5a.45.45,0,0,0-.46-.46H421V37.51h30.54A.46.46,0,0,0,452,37V18.59a.46.46,0,0,0-.47-.47H400.17a.46.46,0,0,0-.46.47V70.78c0,.33.35.36.46.36s.47,0,.47-.36V19.06H451V36.58H420.48A.45.45,0,0,0,420,37V61.5a.45.45,0,0,0,.46.47h23.34V78.62Z" class="cls-1"/><path d="M468.82,125.82a2,2,0,0,1-2-2V50.91c0-9.94,5.57-11.25,10.26-11.25h2.4a2,2,0,1,1,0,3.94h-2.4c-3.82,0-6.33.54-6.33,7.31v71h15.83V20.56H470.79v9.93a2,2,0,1,1-3.93,0V18.59a2,2,0,0,1,2-2h19.66a2,2,0,0,1,2,2V123.85a2,2,0,0,1-2,2Z" class="cls-1"/><path d="M488.48,127.32H468.82a3.47,3.47,0,0,1-3.46-3.47V50.91c0-8.58,3.85-12.75,11.76-12.75h2.4a3.47,3.47,0,1,1,0,6.94h-2.4c-3.11,0-4.83,0-4.83,5.81v69.48h12.83V22.06H472.29v8.43a3.47,3.47,0,1,1-6.93,0V18.59a3.47,3.47,0,0,1,3.46-3.47h19.66a3.47,3.47,0,0,1,3.46,3.47V123.85A3.47,3.47,0,0,1,488.48,127.32ZM477.12,41.16c-4.55,0-8.76,1.19-8.76,9.75v72.94a.46.46,0,0,0,.46.47h19.66a.45.45,0,0,0,.46-.47V18.59a.46.46,0,0,0-.46-.47H468.82a.46.46,0,0,0-.46.47v11.9a.47.47,0,1,0,.93,0V19.06h18.83V123.39H469.29V50.91c0-7.37,2.87-8.81,7.83-8.81h2.4a.46.46,0,0,0,.47-.47.46.46,0,0,0-.47-.47Z" class="cls-1"/><path d="M568.81,69.91c0,22.93-4.91,38.87-15.06,48.59-3.72,3.39-10.49,7.32-21.52,7.32H505.81a2,2,0,1,1,0-3.93h26.42c9.72,0,15.73-3.39,18.9-6.23,9.28-9,13.86-23.91,13.86-45.75,0-14.63-2.51-34.07-14.08-43.13-7.32-5.79-15.18-6.22-26.21-6.22H507.78V96.12c0,6.77,2.51,7.31,6.44,7.31h17.36c3.28,0,7.75-.54,9.5-5.57,2-5.78,2.4-19.54,2.4-26,0-33.09-5.46-33-11.9-33h-4V92.62a1.87,1.87,0,0,1-1.86,2,2,2,0,0,1-2-2V36.93a2,2,0,0,1,2-2.07h5.9c11,0,15.83,5.35,15.83,37,0,.76-.11,19.32-2.62,27.18-1.31,3.83-4.58,8.3-13.21,8.3H514.22c-4.81,0-10.38-1.31-10.38-11.24V18.59a2,2,0,0,1,2-2H524.7c11.47,0,20.31.44,28.61,7C563.46,31.58,568.81,47.64,568.81,69.91Z" class="cls-1"/><path d="M532.23,127.32H505.81a3.47,3.47,0,1,1,0-6.93h26.42c9.9,0,15.46-3.66,17.89-5.85,9-8.66,13.37-23.27,13.37-44.63C563.49,55.6,561.15,36.7,550,28c-6.94-5.49-14.52-5.9-25.28-5.9H509.28V96.12c0,5.81,1.75,5.81,4.94,5.81h17.36c3.21,0,6.68-.54,8.08-4.56C541.49,92,542,78.81,542,71.88c0-14.65-1.09-23.87-3.34-28.16-1.72-3.3-3.8-3.32-6.93-3.32H529V92.62a3.37,3.37,0,0,1-3.36,3.47,3.47,3.47,0,0,1-3.46-3.47V36.93a3.56,3.56,0,0,1,3.46-3.57h5.9c13.44,0,17.33,8.64,17.33,38.52,0,.19-.07,19.44-2.69,27.64-1.47,4.28-5.19,9.34-14.64,9.34H514.22c-2.94,0-11.88,0-11.88-12.74V18.59a3.48,3.48,0,0,1,3.47-3.47H524.7c11.87,0,20.94.53,29.54,7.32,10.51,8.25,16.07,24.67,16.07,47.47,0,23.42-5.08,39.67-15.53,49.67C550.9,123.12,543.86,127.32,532.23,127.32Zm-26.42-3.93a.46.46,0,0,0-.47.46.47.47,0,0,0,.47.47h26.42c10.67,0,17-3.77,20.5-6.93,9.81-9.38,14.58-24.92,14.58-47.48,0-21.85-5.16-37.45-14.93-45.12-7.86-6.2-16.06-6.67-27.68-6.67H505.81a.47.47,0,0,0-.47.47V96.12c0,8.56,4.27,9.74,8.88,9.74h17.36c6.17,0,10.14-2.45,11.79-7.28,2.47-7.74,2.54-26.52,2.54-26.7,0-33.13-5.41-35.52-14.33-35.52h-5.9a.56.56,0,0,0-.46.57V92.62a.45.45,0,0,0,.46.47c.33,0,.36-.36.36-.47V37.4h5.54c3.42,0,7.14,0,9.72,4.93S545,56.52,545,71.88c0,2-.07,19.36-2.48,26.47-2.29,6.58-8.79,6.58-10.92,6.58H514.22c-4.19,0-7.94-.67-7.94-8.81V19.06H524.7c11.39,0,19.44.45,27.14,6.54,12.11,9.49,14.65,29.33,14.65,44.31,0,22.21-4.68,37.53-14.32,46.83-2.8,2.51-9,6.65-19.94,6.65Z" class="cls-1"/><path d="M619.91,127.45c-13.43-.11-15.83-10.34-16.81-14.73l-.11-.79c-1.53-6.41-1.31-22.49-1.2-33.17V72.68c0-14.51.32-25.41,2.18-30.7s4.8-8.1,8.95-8.1c5,0,7.76,2.36,9.61,8.21,2.08,6.64,2,21.37,2,28.46,0,3.37.11,20.58-1.09,27.66-.66,3.94-1.86,8.21-5.57,10.12a1.92,1.92,0,0,1-2.62-.9,2,2,0,0,1,.87-2.69c1.75-.9,2.73-2.93,3.38-7.2,1.1-7,1.21-25,1.21-27,0-6.3,0-21.15-1.86-27.22-1.42-4.61-3.06-5.4-5.9-5.4-1.63,0-3.6.56-5.24,5.29-1.74,5.06-2,17.2-2,29.46,0,1.69-.11,3.71-.11,6.08-.11,10.45-.22,26.43,1.2,32.27l.22.79c1.09,4.61,2.62,11.59,13.1,11.59h.22c16-.12,21.73-27.56,21.73-51.06C642.08,36,633,19,613.36,19c-19.87,0-29.15,16.3-29.15,51.39,0,19.23,2.62,33.18,8,42.63a32.47,32.47,0,0,0,2.18,3.15,2.12,2.12,0,0,1-.22,2.81,1.89,1.89,0,0,1-2.73-.23,23.71,23.71,0,0,1-2.51-3.59C583,105,580.28,90.79,580.28,70.43c0-37.34,10.81-55.44,33.08-55.44,29.26,0,32.76,32.73,32.76,57.36,0,26.65-6.88,55.1-26,55.1Z" class="cls-1"/><path d="M620.13,129h-.23c-14.73-.12-17.3-11.58-18.27-15.9l0-.12-.1-.72c-1.5-6.43-1.35-21.46-1.23-32.45V72.68c0-15.27.38-25.82,2.26-31.2,2.12-6,5.61-9.1,10.37-9.1,5.68,0,9,2.77,11,9.26s2,20.43,2,27.89v1.81c0,5,0,20.36-1.12,27.12-.67,4-2,9-6.36,11.21a3.66,3.66,0,0,1-2.84.13,3.26,3.26,0,0,1-1.84-1.77,3.55,3.55,0,0,1,1.63-4.66c.82-.43,1.83-1.51,2.52-6.06,1.14-7.24,1.19-26.57,1.19-26.76,0-6.26,0-20.92-1.79-26.78-1.28-4.14-2.47-4.34-4.47-4.34-.81,0-2.34,0-3.82,4.28-1.65,4.79-1.88,16.76-1.88,29,0,.79,0,1.64-.05,2.57s-.06,2.24-.06,3.51c-.09,8.45-.27,26,1.16,31.92l.25.95c1.09,4.58,2.43,10.28,11.61,10.28h.22c14-.1,20.23-25,20.23-49.56,0-35.35-8.65-51.81-27.22-51.81-18.87,0-27.65,15.85-27.65,49.89,0,18.91,2.53,32.59,7.74,41.82l.37.58a21.44,21.44,0,0,0,1.7,2.42,3.64,3.64,0,0,1-.39,4.89,3.43,3.43,0,0,1-2.66.84,3.19,3.19,0,0,1-2.24-1.26,24.79,24.79,0,0,1-2.58-3.7c-6.07-10.53-8.87-25-8.87-45.59,0-38.32,11.31-56.94,34.58-56.94,30.71,0,34.26,33.59,34.26,58.86C647.62,99.71,640.4,129,620.13,129Zm-.21-3h.21c18.06,0,24.49-27.69,24.49-53.6,0-24-3.24-55.86-31.26-55.86-21.25,0-31.58,17.64-31.58,53.94,0,20,2.67,34,8.42,44a22.49,22.49,0,0,0,2.36,3.38l.07.08a.19.19,0,0,0,.17.09.48.48,0,0,0,.35-.11.67.67,0,0,0,.06-.73,25.41,25.41,0,0,1-1.94-2.74l-.3-.48-.1-.14c-5.49-9.7-8.16-23.89-8.16-43.37,0-36.09,9.74-52.89,30.65-52.89,20.62,0,30.22,17.41,30.22,54.81,0,25.33-6.1,52.44-23.22,52.56h-.23c-11.55,0-13.41-7.88-14.52-12.59l-.25-.88c-1.34-5.56-1.4-19-1.25-32.7,0-1.28,0-2.47.06-3.57,0-.9.05-1.73.05-2.49,0-14.42.35-25,2-30,1.51-4.36,3.57-6.3,6.66-6.3,4,0,5.87,1.69,7.33,6.46,1.93,6.29,1.93,21.26,1.93,27.66,0,.19-.06,19.77-1.22,27.22-.73,4.74-1.94,7.14-4.18,8.3a.6.6,0,0,0-.19.77.33.33,0,0,0,.17.16.59.59,0,0,0,.45,0c3.09-1.59,4.13-5.45,4.72-9,.73-4.33,1.09-13.29,1.07-26.63V69.53c0-7.3,0-20.88-1.9-27-1.66-5.22-3.87-7.16-8.18-7.16-3.39,0-5.86,2.32-7.54,7.1-1.74,5-2.09,15.66-2.09,30.2v7.11c-.11,10.26-.27,25.77,1.17,31.8l0,.14.1.72C605.56,116.84,607.63,125.85,619.92,126Z" class="cls-1"/><path d="M663.5,20.56V121.89h16.38V56.37a1.94,1.94,0,0,1,.22-.76,1.33,1.33,0,0,1,.55-.55c.21-.11.43-.33.65-.33h.77a2,2,0,0,1,.76.22,1.33,1.33,0,0,1,.55.55l.21.22,30.25,57.87L716,117c2.08,3.17,4.15,4.92,10.27,4.92h6.88a2,2,0,0,1,0,3.93h-6.88c-6.55,0-10.48-2-13.65-6.77l-2.18-3.39v-.11l-26.65-51v59.29a2,2,0,0,1-2,2H661.54a1.88,1.88,0,0,1-2-2V18.59a2,2,0,0,1,2-2H677c7.1,0,10.27,3.06,13.11,8.08L731.2,99.06V20.56h-17V43.49a2,2,0,0,1-3.93,0V18.59a2,2,0,0,1,2-2h21a1.87,1.87,0,0,1,1.85,2v88.34a2,2,0,0,1-.21.76,1.33,1.33,0,0,1-.55.55c-.22.11-.44.32-.66.32H733a2.22,2.22,0,0,1-.77-.21,1.65,1.65,0,0,1-.65-.55l-.11-.22-44.66-81c-2.4-4.26-4.37-6-9.72-6Z" class="cls-1"/><path d="M733.17,127.32h-6.88c-7,0-11.46-2.23-14.9-7.45L709,116.1v-.18L685.31,70.67v53.18a3.47,3.47,0,0,1-3.46,3.47H661.54a3.38,3.38,0,0,1-3.47-3.47V18.59a3.48,3.48,0,0,1,3.47-3.47H677c7.81,0,11.41,3.54,14.41,8.85L729.7,93.24V22.06h-14V43.49a3.47,3.47,0,0,1-6.93,0V18.59a3.47,3.47,0,0,1,3.46-3.47h21a3.38,3.38,0,0,1,3.35,3.47v88.34a3.52,3.52,0,0,1-.37,1.43,2.87,2.87,0,0,1-1.22,1.22,2.37,2.37,0,0,1-1.33.48H733a3.58,3.58,0,0,1-1.44-.37,3,3,0,0,1-1.32-1.22l-.11-.22-44.63-81c-2.21-3.93-3.74-5.23-8.41-5.23H665v98.33h13.38v-64a3.55,3.55,0,0,1,.38-1.44A2.8,2.8,0,0,1,680,53.72a2.26,2.26,0,0,1,1.32-.49h.77a3.49,3.49,0,0,1,1.43.38,2.9,2.9,0,0,1,1.07,1l.25.25,30.32,58,2.15,3.33c1.67,2.55,3.2,4.23,9,4.23h6.88a3.47,3.47,0,0,1,0,6.93ZM712,115.22l1.94,3c2.88,4.38,6.36,6.09,12.39,6.09h6.88c.33,0,.35-.36.35-.47s0-.46-.35-.46h-6.88c-6.61,0-9.15-2-11.52-5.6l-2.26-3.51L682.37,56.61l-.29-.35-.11,0h-.36l-.2.12a.36.36,0,0,0,0,.11v66.93H662V19.06h15c6.09,0,8.5,2.27,11,6.76L732.79,107l.07,0,.18.07h.25l.21-.13a.93.93,0,0,0,0-.1V18.59c0-.11,0-.47-.35-.47h-21a.46.46,0,0,0-.46.47v24.9a.47.47,0,0,0,.93,0V19.06h20v85.82L688.83,25.43c-2.61-4.62-5.38-7.31-11.79-7.31h-15.5a.46.46,0,0,0-.47.47V123.85a.4.4,0,0,0,.47.47h20.31a.45.45,0,0,0,.46-.47V58.45Zm20.91-8.09Zm.73-.07h0ZM681.33,56.4h0Zm0-.17h0Z" class="cls-1"/><path d="M136.31,38.28,120.73,3.91a2.83,2.83,0,0,0-5.16,0L100,38.31a2.83,2.83,0,0,0,1,3.52l9.21,6.28c.45,3.53,1.15,10.16.83,12.73-.7,5.6-2.33,10.09-4.84,13.34C101.14,80.68,92,83,85.1,83H81.78V47l7.16-4.85a2.83,2.83,0,0,0,.92-3.68l-19.61-37a2.78,2.78,0,0,0-4.93,0l-19.61,37a2.84,2.84,0,0,0,.91,3.68L53.78,47V83H51.53c-10.16-.47-17.44-3.72-21.62-9.66a27.87,27.87,0,0,1-4.57-13.6c-.21-2.36.62-7.65,1.13-10.44l9.31-7.6a2.88,2.88,0,0,0,.8-3.42L21,4a2.9,2.9,0,0,0-1.49-1.53,2.84,2.84,0,0,0-3.7,1.44L.26,38.28a2.88,2.88,0,0,0,.8,3.42l7.65,6.22C8.13,51.26,7,58.4,7.1,61.77A48.1,48.1,0,0,0,13,83.57c8,14.16,22.27,19.35,32.81,21.21,1.35.24,2.71.44,4.13.6l2,2.18a8.61,8.61,0,0,0,2.77,15.22,8.64,8.64,0,0,0,5.06,11.27v9.1A2.86,2.86,0,0,0,62.63,146H73.94a2.85,2.85,0,0,0,2.84-2.85v-9.1a8.63,8.63,0,0,0,5.07-11.27,8.61,8.61,0,0,0,2.77-15.22l2-2.18c1.43-.16,2.79-.36,4.13-.6,8-1.4,19.3-4.93,27.48-13.76C124,84.83,127.8,76.23,129,66.8c.73-5.6-.9-15.28-1.67-19.35l8-5.63A2.88,2.88,0,0,0,136.31,38.28ZM70.78,140h-6v-6h6Zm3.54-11h-12a2.88,2.88,0,0,1-2.64-1.6,3,3,0,0,1,2.68-4.4h12A2.89,2.89,0,0,1,77,124.59,3,3,0,0,1,74.32,129Zm6-12h-24a2.88,2.88,0,0,1-2.64-1.6,3,3,0,0,1,2.68-4.4h24A2.89,2.89,0,0,1,83,112.59,3,3,0,0,1,80.32,117ZM122.6,44.57a2.81,2.81,0,0,0-1.15,2.91c.77,3.61,2.62,14.08,2,19.08-1.07,8.17-4.38,15.57-9.31,20.83C107,95,97,98.06,89.79,99.3c-1.53.27-3.09.48-4.76.65a2.9,2.9,0,0,0-1.82.89L78.39,106H58.18l-4.83-5.16a2.85,2.85,0,0,0-1.81-.89c-1.67-.17-3.23-.38-4.76-.65-9.35-1.63-21.94-6.12-28.88-18.22a41.73,41.73,0,0,1-5.14-19C12.64,59.1,14,50.9,14.59,48a2.84,2.84,0,0,0-1-2.73L6.33,39.44,18.42,13.06,30.51,39.44,22.1,46.23a2.83,2.83,0,0,0-1,1.65c-.18.91-1.76,9-1.41,12.95a33.14,33.14,0,0,0,5.6,16.23c5.26,7.39,14,11.4,26.05,11.93h5.6a2.85,2.85,0,0,0,2.84-2.85V45.93a2.83,2.83,0,0,0-1.26-2.36l-6.35-4.23L68.28,9.41,84.4,39.34l-6.35,4.23a2.84,2.84,0,0,0-1.27,2.36V86.15A2.86,2.86,0,0,0,79.63,89H85.1c10.65,0,20.2-4.08,25.53-10.91,3.15-4,5.17-9.4,6-16,.53-4.15-.84-14.2-1-15.33a2.85,2.85,0,0,0-1.22-2l-8.27-5.56,12-26.2,12,26.23Z" class="cls-1"/><path d="M65.78,34.87v50.9a2.94,2.94,0,0,0,2,2.81,3,3,0,0,0,4-2.68V34.74a3,3,0,0,0-4-2.68A2.94,2.94,0,0,0,65.78,34.87Z" class="cls-1"/><path d="M68.46,94.43a2.84,2.84,0,1,0,2.84,2.84A2.84,2.84,0,0,0,68.46,94.43Z" class="cls-1"/></g></g></svg>